<?xml version="1.0" encoding="UTF-8" standalone="no"?>
<!-- Created with Inkscape (http://www.inkscape.org/) -->

<svg
   xmlns:dc="http://purl.org/dc/elements/1.1/"
   xmlns:cc="http://creativecommons.org/ns#"
   xmlns:rdf="http://www.w3.org/1999/02/22-rdf-syntax-ns#"
   xmlns:svg="http://www.w3.org/2000/svg"
   xmlns="http://www.w3.org/2000/svg"
   xmlns:xlink="http://www.w3.org/1999/xlink"
   xmlns:sodipodi="http://sodipodi.sourceforge.net/DTD/sodipodi-0.dtd"
   xmlns:inkscape="http://www.inkscape.org/namespaces/inkscape"
   version="1.1"
   id="svg2"
   width="768"
   height="768"
   viewBox="0 0 768 768"
   sodipodi:docname="DGSI_Logo.svg"
   inkscape:version="0.92.4 (5da689c313, 2019-01-14)">
  <metadata
     id="metadata8">
    <rdf:RDF>
      <cc:Work
         rdf:about="">
        <dc:format>image/svg+xml</dc:format>
        <dc:type
           rdf:resource="http://purl.org/dc/dcmitype/StillImage" />
        <dc:title />
      </cc:Work>
    </rdf:RDF>
  </metadata>
  <defs
     id="defs6">
    <linearGradient
       inkscape:collect="always"
       id="linearGradient1507">
      <stop
         style="stop-color:#d40057;stop-opacity:1"
         offset="0"
         id="stop1503" />
      <stop
         style="stop-color:#8c301c;stop-opacity:0;"
         offset="1"
         id="stop1505" />
    </linearGradient>
    <linearGradient
       inkscape:collect="always"
       id="linearGradient1469">
      <stop
         style="stop-color:#d40057;stop-opacity:1"
         offset="0"
         id="stop1465" />
      <stop
         style="stop-color:#8c301c;stop-opacity:0;"
         offset="1"
         id="stop1467" />
    </linearGradient>
    <linearGradient
       inkscape:collect="always"
       xlink:href="#linearGradient1469"
       id="linearGradient1574"
       gradientUnits="userSpaceOnUse"
       x1="1289.5957"
       y1="438.70193"
       x2="1279.235"
       y2="420.17502"
       gradientTransform="translate(-871.87633,-5.99999)" />
    <linearGradient
       inkscape:collect="always"
       xlink:href="#linearGradient1507"
       id="linearGradient1576"
       gradientUnits="userSpaceOnUse"
       x1="1389.4918"
       y1="493.81519"
       x2="1381.0671"
       y2="489.70978"
       gradientTransform="translate(-871.87633,-6)" />
    <linearGradient
       inkscape:collect="always"
       xlink:href="#linearGradient1380-3"
       id="linearGradient1572-0"
       gradientUnits="userSpaceOnUse"
       x1="1195.6442"
       y1="289.33542"
       x2="1211.7311"
       y2="321.24124" />
    <linearGradient
       inkscape:collect="always"
       id="linearGradient1380-3">
      <stop
         style="stop-color:#2c8aeb;stop-opacity:1"
         offset="0"
         id="stop1376-9" />
      <stop
         style="stop-color:#ffffff;stop-opacity:0"
         offset="1"
         id="stop1378-0" />
    </linearGradient>
  </defs>
  <sodipodi:namedview
     pagecolor="#ffffff"
     bordercolor="#666666"
     borderopacity="1"
     objecttolerance="10"
     gridtolerance="10"
     guidetolerance="10"
     inkscape:pageopacity="0"
     inkscape:pageshadow="2"
     inkscape:window-width="1920"
     inkscape:window-height="1001"
     id="namedview4"
     showgrid="false"
     inkscape:pagecheckerboard="true"
     inkscape:zoom="0.70710678"
     inkscape:cx="8.2917917"
     inkscape:cy="696.04851"
     inkscape:window-x="-9"
     inkscape:window-y="-9"
     inkscape:window-maximized="1"
     inkscape:current-layer="svg2"
     showguides="false" />
  <text
     xml:space="preserve"
     style="font-style:normal;font-variant:normal;font-weight:normal;font-stretch:normal;font-size:40px;line-height:1.25;font-family:Timok;-inkscape-font-specification:Timok;letter-spacing:0px;word-spacing:0px;fill:#000000;fill-opacity:1;stroke:none"
     x="-121.95794"
     y="776.05383"
     id="text948"><tspan
       sodipodi:role="line"
       id="tspan946"
       x="-121.95794"
       y="813.25751" /></text>
  <g
     id="g1260">
    <circle
       r="375.09961"
       cy="389.03754"
       cx="381.66101"
       id="path12-8"
       style="opacity:1;fill:#fefefe;fill-opacity:1;stroke:none;stroke-width:4;stroke-linecap:butt;stroke-linejoin:round;stroke-miterlimit:4;stroke-dasharray:none;stroke-opacity:1" />
    <circle
       r="303.93423"
       cy="389.03754"
       cx="381.66101"
       id="path12-8-0"
       style="opacity:1;fill:#100d78;fill-opacity:1;stroke:none;stroke-width:3.24110389;stroke-linecap:butt;stroke-linejoin:round;stroke-miterlimit:4;stroke-dasharray:none;stroke-opacity:1" />
    <circle
       r="375.09961"
       cy="389.03754"
       cx="381.66101"
       id="path12"
       style="opacity:1;fill:none;fill-opacity:1;stroke:#0907ab;stroke-width:4;stroke-linecap:butt;stroke-linejoin:round;stroke-miterlimit:4;stroke-dasharray:none;stroke-opacity:1" />
    <circle
       r="307.56635"
       cy="389.03754"
       cx="381.66101"
       id="path12-0"
       style="opacity:1;fill:none;fill-opacity:1;stroke:#0907ab;stroke-width:4;stroke-linecap:butt;stroke-linejoin:round;stroke-miterlimit:4;stroke-dasharray:none;stroke-opacity:1" />
    <g
       id="text271"
       style="font-style:normal;font-variant:normal;font-weight:bold;font-stretch:normal;font-size:42.65155029px;line-height:1.25;font-family:sans-serif;-inkscape-font-specification:'sans-serif Bold';text-align:center;letter-spacing:11.72917652px;word-spacing:0px;text-anchor:middle;fill:#1a1a1c;fill-opacity:1;stroke:none;stroke-width:1.06628871"
       aria-label="•                                                          •">
      <path
         id="path1185"
         style="font-size:29.33333397px;line-height:0;letter-spacing:0px;fill:#0907ab;fill-opacity:1;stroke-width:1.06628871"
         d="m 73.216994,228.07247 q 0,-3.00781 2.119791,-5.1276 2.134115,-2.11979 5.141928,-2.11979 3.007812,0 5.127604,2.11979 2.134114,2.11979 2.134114,5.1276 0,3.00782 -2.134114,5.12761 -2.119792,2.11979 -5.127604,2.11979 -3.007813,0 -5.141928,-2.11979 -2.119791,-2.11979 -2.119791,-5.12761 z" />
      <path
         id="path1187"
         style="font-size:29.33333397px;line-height:0;letter-spacing:0px;fill:#0907ab;fill-opacity:1;stroke-width:1.06628871"
         d="m 675.58162,228.07247 q 0,-3.00781 2.11979,-5.1276 2.13411,-2.11979 5.14193,-2.11979 3.00781,0 5.1276,2.11979 2.13412,2.11979 2.13412,5.1276 0,3.00782 -2.13412,5.12761 -2.11979,2.11979 -5.1276,2.11979 -3.00782,0 -5.14193,-2.11979 -2.11979,-2.11979 -2.11979,-5.12761 z" />
    </g>
    <g
       style="opacity:1"
       id="g943"
       transform="matrix(0.98764331,0,0,0.98764331,23.264873,-327.98667)">
      <path
         style="fill:none;fill-opacity:1;stroke:#7f87b9;stroke-width:5;stroke-linecap:butt;stroke-linejoin:miter;stroke-miterlimit:4;stroke-dasharray:none;stroke-opacity:1"
         d="m 365.1356,905.69446 v 10.98351 c -7.77529,1.93609 -12.70792,-0.49113 -15.9501,-7.86257 -1.72916,-4.65321 -1.76477,-10.21261 -0.25062,-14.87803 3.65661,-10.85048 12.4181,-10.58613 17.90025,-4.63865 0.98195,1.1314 1.2409,1.27564 2.29819,0.90715 1.72731,-0.60701 2.89633,-3.39369 3.3054,-5.0062 0.1713,-1.09294 -0.46539,-1.35885 -1.60368,-1.89063 -7.05235,-3.16319 -13.34563,-3.2447 -19.7652,0.30099 -5.61937,3.16116 -9.34878,8.59049 -10.52906,15.0109 -2.1953,13.62936 6.29495,22.89174 17.83209,23.5585 4.96306,5.6e-4 10.04385,-2.05192 14.59324,-6.16247 v -10.3225 l 2.93844,-1.391 v -2.57855 h -15.53478 v 2.57855 z"
         id="path817-8"
         inkscape:connector-curvature="0"
         sodipodi:nodetypes="cccccccccccccccccc" />
      <path
         style="fill:#d3d2d3;fill-opacity:1;stroke:none;stroke-width:0.40000001;stroke-linecap:butt;stroke-linejoin:miter;stroke-miterlimit:4;stroke-dasharray:none;stroke-opacity:1"
         d="m 365.1356,905.69446 v 10.98351 c -7.77529,1.93609 -12.70792,-0.49113 -15.9501,-7.86257 -1.72916,-4.65321 -1.76477,-10.21261 -0.25062,-14.87803 3.65661,-10.85048 12.4181,-10.58613 17.90025,-4.63865 0.98195,1.1314 1.2409,1.27564 2.29819,0.90715 1.72731,-0.60701 2.89633,-3.39369 3.3054,-5.0062 0.1713,-1.09294 -0.46539,-1.35885 -1.60368,-1.89063 -7.05235,-3.16319 -13.34563,-3.2447 -19.7652,0.30099 -5.61937,3.16116 -9.34878,8.59049 -10.52906,15.0109 -2.1953,13.62936 6.29495,22.89174 17.83209,23.5585 4.96306,5.6e-4 10.04385,-2.05192 14.59324,-6.16247 v -10.3225 l 2.93844,-1.391 v -2.57855 h -15.53478 v 2.57855 z"
         id="path817"
         inkscape:connector-curvature="0"
         sodipodi:nodetypes="cccccccccccccccccc" />
      <path
         style="fill:none;fill-opacity:1;stroke:#7f87b9;stroke-width:5;stroke-linecap:butt;stroke-linejoin:miter;stroke-miterlimit:4;stroke-dasharray:none;stroke-opacity:1"
         d="m 316.11911,881.06816 c -1.61061,-0.0298 -3.17339,0.0368 -4.62305,0.14258 -3.94968,0.29877 -7.87732,0.70245 -11.99414,1.23047 v 2.76172 h 4.46485 v 32.2793 l -4.78321,1.05273 v 2.56641 h 16.31641 c 3.73139,-0.0881 6.81985,-0.33936 9.73242,-1.8125 7.00324,-3.56921 11.26221,-9.4519 11.07227,-19.08594 -0.19342,-7.17542 -2.69696,-11.813 -6.09961,-14.81641 -3.98543,-3.28158 -9.25411,-4.2289 -14.08594,-4.31836 z m -2.82226,3.38868 c 9.11674,-0.14106 12.12642,3.95699 13.39843,9.26367 0.54062,4.27808 1.16502,8.82628 0.32813,13.4707 -2.52656,11.09402 -10.48441,10.56918 -15.63281,10.19922 v -32.84766 c 0.66334,-0.048 1.29846,-0.0765 1.90625,-0.0859 z"
         id="path853-8"
         inkscape:connector-curvature="0" />
      <path
         style="fill:#d3d2d3;fill-opacity:1;stroke:none;stroke-width:0.40000001;stroke-linecap:butt;stroke-linejoin:miter;stroke-miterlimit:4;stroke-dasharray:none;stroke-opacity:1"
         d="m 316.11911,881.06816 c -1.61061,-0.0298 -3.17339,0.0368 -4.62305,0.14258 -3.94968,0.29877 -7.87732,0.70245 -11.99414,1.23047 v 2.76172 h 4.46485 v 32.2793 l -4.78321,1.05273 v 2.56641 h 16.31641 c 3.73139,-0.0881 6.81985,-0.33936 9.73242,-1.8125 7.00324,-3.56921 11.26221,-9.4519 11.07227,-19.08594 -0.19342,-7.17542 -2.69696,-11.813 -6.09961,-14.81641 -3.98543,-3.28158 -9.25411,-4.2289 -14.08594,-4.31836 z m -2.82226,3.38868 c 9.11674,-0.14106 12.12642,3.95699 13.39843,9.26367 0.54062,4.27808 1.16502,8.82628 0.32813,13.4707 -2.52656,11.09402 -10.48441,10.56918 -15.63281,10.19922 v -32.84766 c 0.66334,-0.048 1.29846,-0.0765 1.90625,-0.0859 z"
         id="path853"
         inkscape:connector-curvature="0" />
      <path
         style="fill:none;fill-opacity:1;stroke:#7f87b9;stroke-width:5;stroke-linecap:butt;stroke-linejoin:miter;stroke-miterlimit:4;stroke-dasharray:none;stroke-opacity:1"
         d="m 403.18534,889.2755 c 0.91555,-0.93974 1.45879,-2.06683 1.77237,-3.28793 0.59046,-2.01471 -0.14303,-2.50232 -1.84459,-3.21869 -11.26266,-4.80004 -23.18457,1.44801 -22.56688,9.45136 0.28707,6.22402 6.46637,8.51003 12.09928,11.32902 4.01547,1.91394 7.22498,4.07157 7.16344,8.64258 -0.15559,6.50708 -8.66112,7.92224 -13.70059,2.88619 -1.09572,-1.09762 -1.5762,-1.73227 -1.5762,-3.23057 v -1.52775 h -4.67409 v 8.26806 c 1.9399,1.3129 4.59616,2.78728 6.92882,3.42593 4.48846,1.3696 8.98042,0.83757 12.75429,-1.45731 3.3075,-1.71932 5.88285,-4.41447 6.78366,-8.84031 0.90473,-4.56318 -0.59183,-8.08649 -4.91022,-10.91328 -3.80066,-2.47015 -7.51474,-3.67706 -11.84881,-7.0941 -3.84041,-2.7205 -2.61623,-6.76883 0.78174,-8.24475 4.00744,-1.5223 6.6124,0.39558 9.02235,3.19002 1.40687,2.08653 2.05198,2.13243 3.81543,0.62153 z"
         id="path856-1"
         inkscape:connector-curvature="0"
         sodipodi:nodetypes="ccccccccccccccccccc" />
      <path
         style="fill:#d3d2d3;fill-opacity:1;stroke:none;stroke-width:0.40000001;stroke-linecap:butt;stroke-linejoin:miter;stroke-miterlimit:4;stroke-dasharray:none;stroke-opacity:1"
         d="m 403.18534,889.2755 c 0.91555,-0.93974 1.45879,-2.06683 1.77237,-3.28793 0.59046,-2.01471 -0.14303,-2.50232 -1.84459,-3.21869 -11.26266,-4.80004 -23.18457,1.44801 -22.56688,9.45136 0.28707,6.22402 6.46637,8.51003 12.09928,11.32902 4.01547,1.91394 7.22498,4.07157 7.16344,8.64258 -0.15559,6.50708 -8.66112,7.92224 -13.70059,2.88619 -1.09572,-1.09762 -1.5762,-1.73227 -1.5762,-3.23057 v -1.52775 h -4.67409 v 8.26806 c 1.9399,1.3129 4.59616,2.78728 6.92882,3.42593 4.48846,1.3696 8.98042,0.83757 12.75429,-1.45731 3.3075,-1.71932 5.88285,-4.41447 6.78366,-8.84031 0.90473,-4.56318 -0.59183,-8.08649 -4.91022,-10.91328 -3.80066,-2.47015 -7.51474,-3.67706 -11.84881,-7.0941 -3.84041,-2.7205 -2.61623,-6.76883 0.78174,-8.24475 4.00744,-1.5223 6.6124,0.39558 9.02235,3.19002 1.40687,2.08653 2.05198,2.13243 3.81543,0.62153 z"
         id="path856"
         inkscape:connector-curvature="0"
         sodipodi:nodetypes="ccccccccccccccccccc" />
      <path
         style="fill:none;fill-opacity:1;stroke:#7f87b9;stroke-width:5;stroke-linecap:butt;stroke-linejoin:miter;stroke-miterlimit:4;stroke-dasharray:none;stroke-opacity:1"
         d="m 411.78513,882.50762 v 3.02539 c 1.86318,-0.12712 4.22098,-0.14773 4.27148,1.44922 v 29.98828 c -0.0536,2.46737 -2.19034,1.91631 -3.95312,1.97851 v 2.80469 h 7.98437 7.98438 v -2.80469 c -1.76278,-0.0622 -3.89948,0.48886 -3.95313,-1.97851 v -29.98828 c 0.0505,-1.59695 2.40831,-1.57634 4.27149,-1.44922 v -3.02539 h -8.30274 z"
         id="path858-1"
         inkscape:connector-curvature="0" />
      <path
         style="fill:#d3d2d3;fill-opacity:1;stroke:none;stroke-width:0.40000001;stroke-linecap:butt;stroke-linejoin:miter;stroke-miterlimit:4;stroke-dasharray:none;stroke-opacity:1"
         d="m 411.78513,882.50762 v 3.02539 c 1.86318,-0.12712 4.22098,-0.14773 4.27148,1.44922 v 29.98828 c -0.0536,2.46737 -2.19034,1.91631 -3.95312,1.97851 v 2.80469 h 7.98437 7.98438 v -2.80469 c -1.76278,-0.0622 -3.89948,0.48886 -3.95313,-1.97851 v -29.98828 c 0.0505,-1.59695 2.40831,-1.57634 4.27149,-1.44922 v -3.02539 h -8.30274 z"
         id="path858"
         inkscape:connector-curvature="0" />
    </g>
    <g
       transform="translate(-871.87633,-6)"
       id="g1455-4-2">
      <path
         inkscape:connector-curvature="0"
         style="color:#000000;font-style:normal;font-variant:normal;font-weight:normal;font-stretch:normal;font-size:medium;line-height:normal;font-family:sans-serif;font-variant-ligatures:normal;font-variant-position:normal;font-variant-caps:normal;font-variant-numeric:normal;font-variant-alternates:normal;font-feature-settings:normal;text-indent:0;text-align:start;text-decoration:none;text-decoration-line:none;text-decoration-style:solid;text-decoration-color:#000000;letter-spacing:normal;word-spacing:normal;text-transform:none;writing-mode:lr-tb;direction:ltr;text-orientation:mixed;dominant-baseline:auto;baseline-shift:baseline;text-anchor:start;white-space:normal;shape-padding:0;clip-rule:nonzero;display:inline;overflow:visible;visibility:visible;opacity:1;isolation:auto;mix-blend-mode:normal;color-interpolation:sRGB;color-interpolation-filters:linearRGB;solid-color:#000000;solid-opacity:1;vector-effect:none;fill:#ffffff;fill-opacity:1;fill-rule:nonzero;stroke:none;stroke-width:7;stroke-linecap:round;stroke-linejoin:miter;stroke-miterlimit:4;stroke-dasharray:none;stroke-dashoffset:0;stroke-opacity:1;color-rendering:auto;image-rendering:auto;shape-rendering:auto;text-rendering:auto;enable-background:accumulate"
         d="m 1236.8087,213.65383 a 3.50035,3.50035 0 0 0 -2.8847,1.52539 c -22.3856,31.80047 -46.4241,48.77367 -71.6074,57.67387 -25.1834,8.9002 -51.6616,9.6686 -78.7188,8.3711 a 3.50035,3.50035 0 1 0 -0.3359,6.9921 c 27.4039,1.3143 54.8723,0.607 81.3867,-8.7636 26.5144,-9.3707 51.9237,-27.4654 74.998,-60.24417 a 3.50035,3.50035 0 0 0 -2.8379,-5.55469 z m 18.6758,0.38868 a 3.50035,3.50035 0 0 0 -2.8125,5.68945 c 33.2573,42.69133 73.034,61.61213 122,68.54883 a 3.50035,3.50035 0 1 0 0.9824,-6.9297 c -47.7593,-6.7657 -85.2347,-24.5566 -117.4589,-65.92187 a 3.50035,3.50035 0 0 0 -2.711,-1.38671 z m -175.2168,80.20118 a 3.50035,3.50035 0 0 0 -1.0918,6.793 c 41.2566,15.5045 63.9798,45.1273 69.7657,77.2714 5.7859,32.1442 -5.4603,66.9409 -33.3165,92.72071 a 3.50035,3.50035 0 1 0 4.754,5.1368 c 29.4761,-27.2791 41.6741,-64.52551 35.4511,-99.09771 -6.2229,-34.5722 -30.9616,-66.3379 -74.1914,-82.584 a 3.50035,3.50035 0 0 0 -1.3711,-0.2402 z m 291.8633,17.7656 a 3.50035,3.50035 0 0 0 -2.1445,0.834 c -44.3974,36.7991 -53.4197,106.6318 -2.8125,153.52151 a 3.50035,3.50035 0 1 0 4.7578,-5.1348 c -47.7844,-44.27431 -38.9137,-108.65221 2.5215,-142.99611 a 3.50035,3.50035 0 0 0 -2.3223,-6.2246 z m -10.9746,156.59381 a 3.50035,3.50035 0 0 0 -2.8281,1.6289 c -7.7596,11.8962 -15.9125,15.3648 -25.2051,15.6875 -9.2926,0.3226 -19.8258,-3.0645 -30.6152,-6.1914 -10.7895,-3.127 -21.9417,-6.0348 -32.8262,-3.5098 -10.8845,2.5249 -20.8157,10.7793 -28.4629,27.8496 a 3.50035,3.50035 0 1 0 6.3867,2.8633 c 7.0944,-15.8364 15.0196,-21.8886 23.6582,-23.8926 8.6387,-2.004 18.6778,0.3371 29.2949,3.4141 10.6172,3.077 21.7072,6.8483 32.8067,6.4629 11.0995,-0.3855 22.1062,-5.4907 30.8262,-18.8594 a 3.50035,3.50035 0 0 0 -3.0352,-5.4531 z m 33.5625,0.2968 a 3.50035,3.50035 0 0 0 -3.5996,3.3965 l -0.3438,7.8613 -16.2734,5.8672 a 3.50035,3.50035 0 0 0 -2.0938,4.5137 l 16.2833,43.7402 a 3.50035,3.50035 0 0 0 6.7773,-1.0683 l 2.6445,-60.6094 a 3.50035,3.50035 0 0 0 -3.3945,-3.7012 z m -270.0664,4.7012 a 3.50035,3.50035 0 0 0 0.033,6.9961 c 43.7834,1.9835 79.701,16.1043 113.0098,39.1484 a 3.5004204,3.5004204 0 1 0 3.9824,-5.7578 C 1207.5266,490.361 1170.1223,475.649 1125.0039,473.605 a 3.50035,3.50035 0 0 0 -0.3516,0 z m 265.793,14.1172 -1.2188,27.9355 -9.0234,-24.2421 z"
         id="path1251-4-8-1-0-8" />
      <path
         inkscape:connector-curvature="0"
         style="color:#000000;font-style:normal;font-variant:normal;font-weight:normal;font-stretch:normal;font-size:medium;line-height:normal;font-family:sans-serif;font-variant-ligatures:normal;font-variant-position:normal;font-variant-caps:normal;font-variant-numeric:normal;font-variant-alternates:normal;font-feature-settings:normal;text-indent:0;text-align:start;text-decoration:none;text-decoration-line:none;text-decoration-style:solid;text-decoration-color:#000000;letter-spacing:normal;word-spacing:normal;text-transform:none;writing-mode:lr-tb;direction:ltr;text-orientation:mixed;dominant-baseline:auto;baseline-shift:baseline;text-anchor:start;white-space:normal;shape-padding:0;clip-rule:nonzero;display:inline;overflow:visible;visibility:visible;opacity:1;isolation:auto;mix-blend-mode:normal;color-interpolation:sRGB;color-interpolation-filters:linearRGB;solid-color:#000000;solid-opacity:1;vector-effect:none;fill:url(#linearGradient1572-0);fill-opacity:1;fill-rule:nonzero;stroke:none;stroke-width:7;stroke-linecap:round;stroke-linejoin:miter;stroke-miterlimit:4;stroke-dasharray:none;stroke-dashoffset:0;stroke-opacity:1;color-rendering:auto;image-rendering:auto;shape-rendering:auto;text-rendering:auto;enable-background:accumulate"
         d="m 1236.8087,213.65383 c -1.1543,0.002 -2.2334,0.57241 -2.8847,1.52539 -22.3856,31.80047 -46.4241,48.77367 -71.6074,57.67387 -25.1834,8.9002 -51.6616,9.6686 -78.7188,8.3711 -4.7167,-0.28515 -5.0582,6.8238 -0.3359,6.9921 27.4039,1.3143 54.8723,0.607 81.3867,-8.7636 26.5144,-9.3707 51.9237,-27.4654 74.998,-60.24417 1.6785,-2.31564 0.022,-5.55779 -2.8379,-5.55469 z m 18.6758,0.38868 c -2.9745,-0.0696 -4.6741,3.3684 -2.8125,5.68945 33.2573,42.69133 73.034,61.61213 122,68.54883 4.7083,0.77401 5.7203,-6.36456 0.9824,-6.9297 -47.7593,-6.7657 -85.2347,-24.5566 -117.4589,-65.92187 -0.6447,-0.85168 -1.6431,-1.36234 -2.711,-1.38671 z m -175.2168,80.20118 c -3.8701,0.10243 -4.7349,5.483 -1.0918,6.793 41.2566,15.5045 63.9798,45.1273 69.7657,77.2714 5.7859,32.1442 -5.4603,66.9409 -33.3165,92.7207 -3.5683,3.16299 1.3247,8.44999 4.754,5.1368 29.4761,-27.2791 41.6741,-64.5255 35.4511,-99.0977 -6.2229,-34.5722 -30.9616,-66.3379 -74.1914,-82.584 -0.4363,-0.17105 -0.9026,-0.25273 -1.3711,-0.2402 z m 291.8633,17.7656 c -0.7884,0.0284 -1.5441,0.32228 -2.1445,0.834 -44.3974,36.7991 -53.4197,106.6318 -2.8125,153.5215 3.426,3.25123 8.2603,-1.9662 4.7578,-5.1348 -47.7844,-44.2743 -38.9137,-108.6522 2.5215,-142.9961 2.6231,-2.11175 1.043,-6.34701 -2.3223,-6.2246 z m -10.9746,156.5938 c -1.1536,0.0434 -2.2117,0.65279 -2.8281,1.6289 -7.7596,11.8962 -15.9125,15.3648 -25.2051,15.6875 -9.2926,0.3226 -19.8258,-3.0645 -30.6152,-6.1914 -10.7895,-3.127 -21.9417,-6.0348 -32.8262,-3.5098 -10.8845,2.5249 -20.8157,10.7793 -28.4629,27.8496 -2.04,4.30695 4.5284,7.25169 6.3867,2.8633 7.0944,-15.8364 15.0196,-21.8886 23.6582,-23.8926 8.6387,-2.004 18.6778,0.3371 29.2949,3.4141 10.6172,3.077 21.7072,6.8483 32.8067,6.4629 11.0995,-0.3855 22.1062,-5.4907 30.8262,-18.8594 1.5994,-2.37495 -0.1739,-5.56094 -3.0352,-5.4531 z m -236.5039,4.998 c -4.4986,0.18302 -4.4671,6.85552 0.033,6.9961 43.7834,1.9835 79.701,16.1043 113.0098,39.1484 3.8387,2.65599 7.8211,-3.10181 3.9824,-5.7578 -34.1511,-23.6268 -71.5554,-38.3388 -116.6738,-40.3828 -0.1171,-0.006 -0.2345,-0.006 -0.3516,0 z"
         id="path1251-4-84-3"
         sodipodi:nodetypes="ccccccccccccccccscccccccccccccccccccccccccccccc" />
    </g>
    <path
       sodipodi:nodetypes="ccccccccccccc"
       id="path1251-4-8-0-1"
       d="m 522.84257,462.89987 c -1.9317,-0.0556 -3.5431,1.46478 -3.5996,3.3965 l -0.3438,7.8613 -16.2734,5.8672 c -1.832,0.66024 -2.7729,2.68865 -2.0938,4.5137 l 16.2833,43.7402 c 1.3315,3.57565 6.6103,2.74355 6.7773,-1.0683 l 2.6445,-60.6094 c 0.114,-1.97 -1.422,-3.64483 -3.3945,-3.7012 z m -4.2734,18.8184 -1.2188,27.9355 -9.0234,-24.2421 z"
       style="color:#000000;font-style:normal;font-variant:normal;font-weight:normal;font-stretch:normal;font-size:medium;line-height:normal;font-family:sans-serif;font-variant-ligatures:normal;font-variant-position:normal;font-variant-caps:normal;font-variant-numeric:normal;font-variant-alternates:normal;font-feature-settings:normal;text-indent:0;text-align:start;text-decoration:none;text-decoration-line:none;text-decoration-style:solid;text-decoration-color:#000000;letter-spacing:normal;word-spacing:normal;text-transform:none;writing-mode:lr-tb;direction:ltr;text-orientation:mixed;dominant-baseline:auto;baseline-shift:baseline;text-anchor:start;white-space:normal;shape-padding:0;clip-rule:nonzero;display:inline;overflow:visible;visibility:visible;opacity:1;isolation:auto;mix-blend-mode:normal;color-interpolation:sRGB;color-interpolation-filters:linearRGB;solid-color:#000000;solid-opacity:1;vector-effect:none;fill:url(#linearGradient1576);fill-opacity:1;fill-rule:nonzero;stroke:none;stroke-width:7;stroke-linecap:round;stroke-linejoin:miter;stroke-miterlimit:4;stroke-dasharray:none;stroke-dashoffset:0;stroke-opacity:1;color-rendering:auto;image-rendering:auto;shape-rendering:auto;text-rendering:auto;enable-background:accumulate"
       inkscape:connector-curvature="0" />
    <g
       id="text214"
       style="font-style:normal;font-variant:normal;font-weight:normal;font-stretch:normal;font-size:40px;line-height:1.25;font-family:Timok;-inkscape-font-specification:Timok;text-align:center;letter-spacing:0px;word-spacing:0px;text-anchor:middle;fill:#0907ab;fill-opacity:1;stroke:none"
       aria-label="RÉPUBLIQUE FRANÇAISE">
      <path
         id="path1067"
         style="font-style:normal;font-variant:normal;font-weight:900;font-stretch:normal;font-family:Arial;-inkscape-font-specification:'Arial Heavy';text-align:center;letter-spacing:1.39999998px;word-spacing:7.5px;text-anchor:middle;fill:#0907ab;fill-opacity:1"
         d="m 124.24354,186.27211 -21.79193,-18.57283 9.56514,-11.22299 q 2.6605,-3.12162 4.6019,-4.31554 1.9414,-1.19392 4.25965,-0.96316 2.30339,0.21808 4.38448,1.99175 1.81351,1.54562 2.4777,3.44614 0.64932,1.88785 0.314,3.93736 -0.21453,1.30558 -1.15221,3.09832 1.42754,-0.86199 2.29765,-1.06993 0.58429,-0.14358 2.05677,-0.0947 1.48514,0.034 2.16352,0.20153 l 9.0921,2.12893 -6.48655,7.61083 -9.72538,-2.07844 q -1.87602,-0.41842 -2.7186,-0.21268 -1.12619,0.29763 -1.91167,1.21926 l -0.50676,0.59459 8.84461,7.53809 z m -7.19776,-17.81093 2.41978,-2.8392 q 0.39275,-0.46081 1.22299,-2.03717 0.43633,-0.78294 0.24106,-1.66791 -0.1826,-0.89984 -0.89611,-1.50795 -1.05541,-0.8995 -2.19038,-0.71201 -1.13498,0.1875 -2.70594,2.03075 l -2.52114,2.95811 z" />
      <path
         id="path1069"
         style="font-style:normal;font-variant:normal;font-weight:900;font-stretch:normal;font-family:Arial;-inkscape-font-specification:'Arial Heavy';text-align:center;letter-spacing:1.39999998px;word-spacing:7.5px;text-anchor:middle;fill:#0907ab;fill-opacity:1"
         d="m 125.61236,141.33686 17.02809,-16.50008 4.25414,4.39027 -10.66009,10.32954 3.16682,3.26816 9.88863,-9.58201 4.06386,4.19391 -9.88863,9.582 3.92794,4.05364 10.96867,-10.62855 4.51238,4.65678 -17.33667,16.79909 z m 2.87585,-13.33892 4.90926,-4.75703 -0.46668,8.58396 -2.73516,2.65035 z" />
      <path
         id="path1071"
         style="font-style:normal;font-variant:normal;font-weight:900;font-stretch:normal;font-family:Arial;-inkscape-font-specification:'Arial Heavy';text-align:center;letter-spacing:1.39999998px;word-spacing:7.5px;text-anchor:middle;fill:#0907ab;fill-opacity:1"
         d="m 149.57159,118.74956 11.45783,-9.22035 q 3.7432,-3.01223 7.03223,-2.7258 3.30424,0.27419 5.94912,3.5609 2.71835,3.37801 2.20997,6.92084 -0.49315,3.53059 -4.6624,6.88568 l -3.77363,3.03671 6.66118,8.27764 -6.92339,5.57139 z m 14.57641,3.93876 1.689,-1.35918 q 1.99333,-1.60407 2.24877,-2.93778 0.2432,-1.34892 -0.62618,-2.42927 -0.84489,-1.04992 -2.13259,-1.21704 -1.2877,-0.16712 -3.22017,1.38797 l -1.96289,1.57958 z" />
      <path
         id="path1073"
         style="font-style:normal;font-variant:normal;font-weight:900;font-stretch:normal;font-family:Arial;-inkscape-font-specification:'Arial Heavy';text-align:center;letter-spacing:1.39999998px;word-spacing:7.5px;text-anchor:middle;fill:#0907ab;fill-opacity:1"
         d="m 191.274,88.055275 7.39133,-4.827416 9.33443,14.292096 q 1.38842,2.125826 1.95686,4.460605 0.57411,2.30774 0.0806,4.65958 -0.48783,2.32481 -1.66751,3.91176 -1.63521,2.21105 -4.66042,4.18687 -1.74972,1.14277 -3.98669,2.25386 -2.22062,1.10041 -4.08051,1.28871 -1.87057,0.17195 -3.90737,-0.41067 -2.02044,-0.5933 -3.37478,-1.73828 -2.18202,-1.84079 -3.33548,-3.60686 l -9.33443,-14.292095 7.39134,-4.827417 9.55871,14.635502 q 1.28162,1.9623 3.08713,2.36938 1.81119,0.38005 3.74078,-0.8802 1.91325,-1.24958 2.28762,-3.03373 0.38005,-1.81119 -0.92292,-3.8062 z" />
      <path
         id="path1075"
         style="font-style:normal;font-variant:normal;font-weight:900;font-stretch:normal;font-family:Arial;-inkscape-font-specification:'Arial Heavy';text-align:center;letter-spacing:1.39999998px;word-spacing:7.5px;text-anchor:middle;fill:#0907ab;fill-opacity:1"
         d="m 207.57734,78.103978 14.72305,-7.586054 q 3.68076,-1.896514 6.58199,-1.084373 2.91859,0.803196 4.30519,3.494319 1.16296,2.257072 0.58859,4.596357 -0.38291,1.559524 -1.86652,3.114924 3.08315,-0.75368 5.19991,0.199003 2.12517,0.926376 3.37758,3.357068 1.01983,1.979278 0.91371,4.033356 -0.10612,2.054078 -1.22931,3.797284 -0.69442,1.082861 -2.55688,2.372061 -2.47748,1.715952 -3.34558,2.163243 l -13.57716,6.995634 z m 13.07832,5.894961 3.42033,-1.762327 q 1.84039,-0.948257 2.23018,-1.94007 0.39821,-1.018122 -0.21905,-2.216106 -0.57253,-1.111174 -1.62379,-1.360484 -1.03389,-0.258257 -2.82219,0.663163 l -3.47241,1.789164 z m 5.15279,10.000561 4.01065,-2.066484 q 2.03136,-1.046661 2.49796,-2.187906 0.45766,-1.158607 -0.16855,-2.373953 -0.58148,-1.128535 -1.76374,-1.376257 -1.17386,-0.27403 -3.23994,0.790522 l -3.99328,2.057539 z" />
      <path
         id="path1077"
         style="font-style:normal;font-variant:normal;font-weight:900;font-stretch:normal;font-family:Arial;-inkscape-font-specification:'Arial Heavy';text-align:center;letter-spacing:1.39999998px;word-spacing:7.5px;text-anchor:middle;fill:#0907ab;fill-opacity:1"
         d="m 239.06812,62.510976 8.20744,-3.304377 8.06035,20.020363 12.8094,-5.157161 2.63329,6.540589 -21.01685,8.461538 z" />
      <path
         id="path1079"
         style="font-style:normal;font-variant:normal;font-weight:900;font-stretch:normal;font-family:Arial;-inkscape-font-specification:'Arial Heavy';text-align:center;letter-spacing:1.39999998px;word-spacing:7.5px;text-anchor:middle;fill:#0907ab;fill-opacity:1"
         d="m 267.51247,51.639124 8.4352,-2.733937 8.82809,27.237894 -8.4352,2.733937 z" />
      <path
         id="path1081"
         style="font-style:normal;font-variant:normal;font-weight:900;font-stretch:normal;font-family:Arial;-inkscape-font-specification:'Arial Heavy';text-align:center;letter-spacing:1.39999998px;word-spacing:7.5px;text-anchor:middle;fill:#0907ab;fill-opacity:1"
         d="m 315.89163,63.734684 q 1.88202,0.736225 2.4439,0.903531 0.84056,0.241459 2.2258,0.493701 l -1.24423,5.396204 q -2.01317,-0.443968 -4.06982,-1.23898 -2.05211,-0.776013 -2.89994,-1.216519 -2.55571,1.91393 -6.8496,2.936899 -6.34583,1.511823 -10.80034,-0.920493 -5.26432,-2.881876 -6.95268,-9.968693 -1.63856,-6.877822 1.23706,-11.57848 2.89009,-4.724184 9.69192,-6.34464 6.93482,-1.652142 11.5839,1.175532 4.66808,2.823147 6.32022,9.757967 1.47108,6.17484 -0.68619,10.603971 z m -7.64296,-2.83722 q 0.58691,-2.087379 -0.28668,-5.754284 -1.00487,-4.217891 -3.01184,-5.647152 -1.98797,-1.433787 -4.74289,-0.777457 -2.56494,0.611066 -3.72183,2.834237 -1.1569,2.223172 -0.22446,6.13707 1.08634,4.559882 3.08336,6.031668 1.99702,1.471787 4.71395,0.824509 0.87398,-0.208215 1.61222,-0.564793 -1.33192,-0.786968 -3.89065,-1.161195 l 0.61115,-3.418295 q 1.18977,-0.06259 1.88917,0.09203 0.71841,0.150094 2.86916,1.002999 0.50941,0.199884 1.09934,0.400663 z" />
      <path
         id="path1083"
         style="font-style:normal;font-variant:normal;font-weight:900;font-stretch:normal;font-family:Arial;-inkscape-font-specification:'Arial Heavy';text-align:center;letter-spacing:1.39999998px;word-spacing:7.5px;text-anchor:middle;fill:#0907ab;fill-opacity:1"
         d="m 340.88367,35.248591 8.75664,-1.121221 2.16802,16.932077 q 0.32248,2.518502 -0.18407,4.867483 -0.48966,2.327128 -1.95931,4.228397 -1.45275,1.879415 -3.20638,2.793128 -2.4357,1.276717 -6.01972,1.735624 -2.07292,0.265422 -4.57051,0.289859 -2.47821,0.02196 -4.23407,-0.619611 -1.75834,-0.66094 -3.33724,-2.073412 -1.55952,-1.414952 -2.27903,-3.035916 -1.16095,-2.608048 -1.42885,-4.700341 l -2.16803,-16.932077 8.75664,-1.121221 2.22011,17.338912 q 0.29767,2.32477 1.74498,3.478422 1.46419,1.131798 3.75022,0.83909 2.26665,-0.290227 3.38155,-1.732569 1.1318,-1.464196 0.82917,-3.827712 z" />
      <path
         id="path1085"
         style="font-style:normal;font-variant:normal;font-weight:900;font-stretch:normal;font-family:Arial;-inkscape-font-specification:'Arial Heavy';text-align:center;letter-spacing:1.39999998px;word-spacing:7.5px;text-anchor:middle;fill:#0907ab;fill-opacity:1"
         d="m 359.73714,33.450733 23.70115,-0.681165 0.17562,6.110759 -14.83762,0.426429 0.13073,4.548903 13.76385,-0.395569 0.16777,5.837433 -13.76385,0.395569 0.16216,5.642202 15.26713,-0.438773 0.18628,6.481698 -24.13066,0.693509 z" />
      <path
         id="path1087"
         style="font-style:normal;font-variant:normal;font-weight:900;font-stretch:normal;font-family:Arial;-inkscape-font-specification:'Arial Heavy';text-align:center;letter-spacing:1.39999998px;word-spacing:7.5px;text-anchor:middle;fill:#0907ab;fill-opacity:1"
         d="m 416.76985,34.529072 21.6995,2.765369 -0.77776,6.102985 -12.88408,-1.641938 -0.63208,4.959886 11.00475,1.402437 -0.73085,5.734868 -11.00475,-1.402437 -1.47898,11.605359 -8.81542,-1.123431 z" />
      <path
         id="path1089"
         style="font-style:normal;font-variant:normal;font-weight:900;font-stretch:normal;font-family:Arial;-inkscape-font-specification:'Arial Heavy';text-align:center;letter-spacing:1.39999998px;word-spacing:7.5px;text-anchor:middle;fill:#0907ab;fill-opacity:1"
         d="m 441.10033,66.740767 6.2376,-27.945131 14.39194,3.212407 q 4.00305,0.893517 5.96578,2.052042 1.96272,1.158525 2.84197,3.315947 0.88351,2.138359 0.28783,4.807061 -0.51909,2.325584 -1.889,3.800865 -1.36566,1.456218 -3.33433,2.117447 -1.25453,0.420394 -3.27767,0.429085 1.42916,0.859321 2.01958,1.531428 0.39996,0.44949 1.04485,1.774136 0.66395,1.3289 0.83279,2.006966 l 2.3663,9.03323 -9.75983,-2.17848 -2.70687,-9.56952 q -0.50669,-1.854131 -1.0823,-2.502922 -0.78938,-0.856601 -1.97123,-1.120401 l -0.76249,-0.170194 -2.53163,11.341987 z m 12.38351,-14.686253 3.64087,0.812675 q 0.59093,0.1319 2.37256,0.129338 0.89609,0.01991 1.58726,-0.566256 0.71023,-0.581909 0.91446,-1.496893 0.3021,-1.353414 -0.39401,-2.269244 -0.69612,-0.91583 -3.05983,-1.44343 l -3.79337,-0.846714 z" />
      <path
         id="path1091"
         style="font-style:normal;font-variant:normal;font-weight:900;font-stretch:normal;font-family:Arial;-inkscape-font-specification:'Arial Heavy';text-align:center;letter-spacing:1.39999998px;word-spacing:7.5px;text-anchor:middle;fill:#0907ab;fill-opacity:1"
         d="m 490.83906,75.197571 -9.56786,-3.166193 -2.80142,4.051591 -8.58511,-2.840983 19.21226,-23.802134 9.15992,3.0312 1.22141,30.564043 -8.78907,-2.90848 z m 0.1836,-6.460849 0.22983,-10.765857 -6.21901,8.783919 z" />
      <path
         id="path1093"
         style="font-style:normal;font-variant:normal;font-weight:900;font-stretch:normal;font-family:Arial;-inkscape-font-specification:'Arial Heavy';text-align:center;letter-spacing:1.39999998px;word-spacing:7.5px;text-anchor:middle;fill:#0907ab;fill-opacity:1"
         d="m 515.19665,58.579965 7.53364,3.391208 3.32931,18.869333 6.50182,-14.443926 7.60488,3.423277 -11.75298,26.109488 -7.60488,-3.423277 -3.32398,-18.738421 -6.45372,14.337065 -7.58707,-3.41526 z" />
      <path
         id="path1095"
         style="font-style:normal;font-variant:normal;font-weight:900;font-stretch:normal;font-family:Arial;-inkscape-font-specification:'Arial Heavy';text-align:center;letter-spacing:1.39999998px;word-spacing:7.5px;text-anchor:middle;fill:#0907ab;fill-opacity:1"
         d="m 557.27416,98.78599 5.52899,5.92001 q -2.31329,2.42855 -4.86422,3.47701 -2.55093,1.04846 -5.27194,0.75604 -2.70412,-0.2826 -6.03165,-2.21444 -4.03696,-2.3437 -5.92776,-4.99973 -1.86411,-2.663118 -2.00602,-6.697738 -0.14192,-4.034619 2.53519,-8.64587 3.56948,-6.148335 8.74167,-7.549477 5.19889,-1.408226 11.17831,2.063192 4.67882,2.716335 6.2493,6.157521 1.58737,3.450991 0.61293,8.124792 l -7.62917,-2.419204 q 0.30231,-1.337631 0.21781,-2.086797 -0.13194,-1.250971 -0.78637,-2.263265 -0.65443,-1.012293 -1.80302,-1.679119 -2.60122,-1.510165 -5.20226,-0.219791 -1.94942,0.945986 -3.88125,4.273519 -2.39273,4.121412 -2.03517,6.384159 0.36738,2.245856 2.63077,3.559898 2.19584,1.27481 4.0265,0.68898 1.84756,-0.57602 3.71736,-2.62969 z m -16.84962,7.47208 1.66387,-1.69896 q 1.8133,0.5333 3.19837,1.33741 2.88837,1.67687 3.41752,3.29396 0.52915,1.61709 -0.24554,2.95148 -0.4707,0.81077 -1.47755,1.37802 -0.98996,0.57706 -2.57768,0.35541 -1.58771,-0.22166 -3.71598,-1.45725 -1.92558,-1.11791 -4.27183,-3.06724 l 1.20617,-2.0776 q 1.56054,1.35767 3.53679,2.50501 1.45263,0.84334 2.18491,0.74903 0.74916,-0.0845 1.11199,-0.70947 0.28439,-0.48984 0.068,-1.08971 -0.21634,-0.59986 -1.11157,-1.1196 -1.19926,-0.69624 -2.98751,-1.35049 z" />
      <path
         id="path1097"
         style="font-style:normal;font-variant:normal;font-weight:900;font-stretch:normal;font-family:Arial;-inkscape-font-specification:'Arial Heavy';text-align:center;letter-spacing:1.39999998px;word-spacing:7.5px;text-anchor:middle;fill:#0907ab;fill-opacity:1"
         d="m 579.89308,122.4417 -8.17223,-5.89773 -3.89047,3.02121 -7.33284,-5.29195 25.4825,-16.920252 7.82381,5.646272 -8.02939,29.51578 -7.50706,-5.41768 z m 2.11864,-6.10636 3.45775,-10.19806 -8.57332,6.50626 z" />
      <path
         id="path1099"
         style="font-style:normal;font-variant:normal;font-weight:900;font-stretch:normal;font-family:Arial;-inkscape-font-specification:'Arial Heavy';text-align:center;letter-spacing:1.39999998px;word-spacing:7.5px;text-anchor:middle;fill:#0907ab;fill-opacity:1"
         d="m 607.57294,113.76582 6.78024,5.71449 -18.45252,21.8939 -6.78024,-5.71449 z" />
      <path
         id="path1101"
         style="font-style:normal;font-variant:normal;font-weight:900;font-stretch:normal;font-family:Arial;-inkscape-font-specification:'Arial Heavy';text-align:center;letter-spacing:1.39999998px;word-spacing:7.5px;text-anchor:middle;fill:#0907ab;fill-opacity:1"
         d="m 607.30602,138.51357 6.39925,5.49453 q -1.23471,1.66011 -1.38235,3.01565 -0.23305,2.19921 1.58616,3.97046 1.35741,1.32162 2.69822,1.40039 1.36842,0.0784 2.18592,-0.76122 0.77663,-0.79766 0.69006,-2.10863 -0.0866,-1.31098 -2.08847,-4.35048 -3.25731,-4.99784 -3.52216,-8.28154 -0.27884,-3.29732 2.06466,-5.70427 1.53962,-1.58131 3.81172,-2.09508 2.29972,-0.51413 4.90955,0.47309 2.63744,0.98685 5.84205,4.10697 3.93229,3.82862 4.55877,7.30086 0.65409,3.47186 -2.06057,7.04397 l -6.31603,-5.46802 q 1.11098,-1.61702 0.95444,-2.99612 -0.14254,-1.36548 -1.48596,-2.67348 -1.10552,-1.07637 -2.12852,-1.14558 -1.00938,-0.0832 -1.66338,0.58851 -0.47688,0.48979 -0.39658,1.33124 0.0527,0.84182 1.39132,2.82667 3.28419,4.94223 4.17617,7.60983 0.91958,2.66723 0.40961,4.81488 -0.49599,2.16129 -2.13099,3.84056 -1.92112,1.97314 -4.63402,2.57566 -2.7129,0.60253 -5.51679,-0.43735 -2.79027,-1.05387 -5.77097,-3.95599 -5.23372,-5.09575 -5.28685,-9.07287 -0.0531,-3.97712 2.70574,-7.34264 z" />
      <path
         id="path1103"
         style="font-style:normal;font-variant:normal;font-weight:900;font-stretch:normal;font-family:Arial;-inkscape-font-specification:'Arial Heavy';text-align:center;letter-spacing:1.39999998px;word-spacing:7.5px;text-anchor:middle;fill:#0907ab;fill-opacity:1"
         d="m 645.05053,149.1543 15.39702,18.03164 -4.64901,3.96974 -9.639,-11.28834 -3.46076,2.95511 8.94143,10.47143 -4.44107,3.79218 -8.94144,-10.47142 -4.29254,3.66535 9.91802,11.61511 -4.93122,4.21072 -15.67605,-18.35841 z" />
    </g>
    <g
       id="text221"
       style="font-style:normal;font-variant:normal;font-weight:normal;font-stretch:normal;font-size:40px;line-height:1.25;font-family:Timok;-inkscape-font-specification:Timok;letter-spacing:0px;word-spacing:0px;fill:#0907ab;fill-opacity:1;stroke:none"
       aria-label="DIRECTION GÉNÉRALE DE LA SÉCURITÉ INTÉRIEURE">
      <path
         id="path1106"
         style="font-style:normal;font-variant:normal;font-weight:900;font-stretch:normal;font-family:Arial;-inkscape-font-specification:'Arial Heavy';text-align:center;letter-spacing:3.20000005px;word-spacing:7.5px;text-anchor:middle;fill:#0907ab;fill-opacity:1"
         d="m 70.901609,283.78719 -3.733547,12.60315 q -1.103976,3.72664 -2.792034,5.71174 -1.693605,2.00382 -4.028823,2.94166 -2.335218,0.93784 -5.044325,0.86862 -2.709108,-0.0692 -5.51813,-0.90136 -4.400802,-1.30369 -6.535717,-3.03613 -2.121736,-1.70816 -3.242672,-3.9754 -1.102209,-2.26169 -1.040596,-4.46379 0.07752,-3.0122 0.748784,-5.27815 l 3.733547,-12.60314 z m -8.730374,6.64144 -15.00018,-4.44364 -0.615786,2.07868 q -0.787762,2.6592 -0.540087,3.95479 0.266401,1.30113 1.538473,2.37056 1.2908,1.07497 4.586719,2.05135 4.363349,1.2926 6.395474,0.34645 2.032125,-0.94614 3.008506,-4.24206 z" />
      <path
         id="path1108"
         style="font-style:normal;font-variant:normal;font-weight:900;font-stretch:normal;font-family:Arial;-inkscape-font-specification:'Arial Heavy';text-align:center;letter-spacing:3.20000005px;word-spacing:7.5px;text-anchor:middle;fill:#0907ab;fill-opacity:1"
         d="m 62.260057,314.98967 -1.874915,8.6667 -27.985427,-6.05424 1.874915,-8.66671 z" />
      <path
         id="path1110"
         style="font-style:normal;font-variant:normal;font-weight:900;font-stretch:normal;font-family:Arial;-inkscape-font-specification:'Arial Heavy';text-align:center;letter-spacing:3.20000005px;word-spacing:7.5px;text-anchor:middle;fill:#0907ab;fill-opacity:1"
         d="m 30.415286,327.05171 28.359038,3.95005 -2.034306,14.6051 q -0.565833,4.06235 -1.561318,6.11259 -0.995485,2.05023 -3.074469,3.10161 -2.059638,1.05406 -4.767868,0.67684 -2.360029,-0.32872 -3.941579,-1.57444 -1.562205,-1.24303 -2.380958,-3.15157 -0.52078,-1.21629 -0.693564,-3.23206 -0.740552,1.49416 -1.362548,2.13716 -0.415562,0.43511 -1.683526,1.18533 -1.270659,0.76956 -1.932794,0.99285 l -8.811496,3.09131 1.379555,-9.90439 9.318392,-3.47425 q 1.806916,-0.65544 2.406873,-1.28178 0.78974,-0.85627 0.956796,-2.05563 l 0.107778,-0.77378 -11.509978,-1.60319 z m 15.642432,11.1513 -0.514638,3.6948 q -0.08353,0.59968 0.06356,2.37523 0.05285,0.89475 0.693153,1.53609 0.637608,0.66069 1.566144,0.79002 1.373459,0.19131 2.2298,-0.57681 0.856341,-0.76811 1.190452,-3.16683 l 0.536194,-3.84955 z" />
      <path
         id="path1112"
         style="font-style:normal;font-variant:normal;font-weight:900;font-stretch:normal;font-family:Arial;-inkscape-font-specification:'Arial Heavy';text-align:center;letter-spacing:3.20000005px;word-spacing:7.5px;text-anchor:middle;fill:#0907ab;fill-opacity:1"
         d="m 54.774813,362.2586 -1.084325,23.68613 -6.106886,-0.27956 0.67882,-14.82822 -4.54602,-0.20811 -0.629695,13.75512 -5.833734,-0.26706 0.629695,-13.75513 -5.638626,-0.25813 -0.69847,15.25746 -6.477591,-0.29654 1.103975,-24.11536 z" />
      <path
         id="path1114"
         style="font-style:normal;font-variant:normal;font-weight:900;font-stretch:normal;font-family:Arial;-inkscape-font-specification:'Arial Heavy';text-align:center;letter-spacing:3.20000005px;word-spacing:7.5px;text-anchor:middle;fill:#0907ab;fill-opacity:1"
         d="m 37.630487,411.5701 -1.98503,7.8534 q -3.294168,-0.63057 -5.556529,-2.20798 -2.262362,-1.57741 -3.489327,-4.02363 -1.226069,-2.4267 -1.402845,-6.27029 -0.214465,-4.66304 0.995372,-7.69057 1.230245,-3.00892 4.545896,-5.31212 3.315652,-2.30321 8.642053,-2.54818 7.101867,-0.32664 11.079627,3.26393 3.998167,3.60919 4.315826,10.51595 0.248564,5.40444 -1.794846,8.58762 -2.042512,3.20269 -6.499882,4.91319 l -2.095383,-7.72438 q 1.288368,-0.46985 1.872559,-0.94641 0.980453,-0.78806 1.477397,-1.88627 0.496943,-1.09821 0.435924,-2.42494 -0.138191,-3.00463 -2.631091,-4.49323 -1.850612,-1.12711 -5.694206,-0.95033 -4.760592,0.21895 -6.469656,1.7444 -1.689553,1.52454 -1.569309,4.13897 0.116655,2.53638 1.600155,3.75857 1.484398,1.24171 4.223295,1.7023 z" />
      <path
         id="path1116"
         style="font-style:normal;font-variant:normal;font-weight:900;font-stretch:normal;font-family:Arial;-inkscape-font-specification:'Arial Heavy';text-align:center;letter-spacing:3.20000005px;word-spacing:7.5px;text-anchor:middle;fill:#0907ab;fill-opacity:1"
         d="m 55.189326,421.35508 3.715695,26.63661 -7.002509,0.97682 -1.246661,-8.9369 -21.355719,2.97903 -1.222375,-8.76281 21.355719,-2.97903 -1.24666,-8.9369 z" />
      <path
         id="path1118"
         style="font-style:normal;font-variant:normal;font-weight:900;font-stretch:normal;font-family:Arial;-inkscape-font-specification:'Arial Heavy';text-align:center;letter-spacing:3.20000005px;word-spacing:7.5px;text-anchor:middle;fill:#0907ab;fill-opacity:1"
         d="m 60.176182,453.38524 1.849965,8.67206 -28.002734,5.97368 -1.849966,-8.67206 z" />
      <path
         id="path1120"
         style="font-style:normal;font-variant:normal;font-weight:900;font-stretch:normal;font-family:Arial;-inkscape-font-specification:'Arial Heavy';text-align:center;letter-spacing:3.20000005px;word-spacing:7.5px;text-anchor:middle;fill:#0907ab;fill-opacity:1"
         d="m 49.410212,472.22903 q 6.722289,-1.99375 11.57802,0.64054 4.855732,2.63428 6.838375,9.31912 2.032626,6.85336 -0.55659,11.65498 -2.57049,4.79607 -9.199153,6.76205 -4.812335,1.42728 -8.385131,0.71455 -3.548517,-0.69956 -6.182015,-3.25953 -2.609218,-2.5468 -3.964302,-7.11571 -1.377298,-4.64381 -0.80326,-8.13473 0.579591,-3.47219 3.220656,-6.31309 2.641066,-2.8409 7.4534,-4.26818 z m 2.478341,8.49355 q -4.156958,1.23291 -5.51789,3.30706 -1.355378,2.09288 -0.566764,4.75184 0.810829,2.73385 3.033997,3.70426 2.223169,0.97041 6.829528,-0.39578 3.876082,-1.1496 5.188457,-3.2501 1.336653,-2.08732 0.542485,-4.765 -0.760846,-2.56533 -3.038126,-3.58081 -2.277279,-1.01548 -6.471687,0.22853 z" />
      <path
         id="path1122"
         style="font-style:normal;font-variant:normal;font-weight:900;font-stretch:normal;font-family:Arial;-inkscape-font-specification:'Arial Heavy';text-align:center;letter-spacing:3.20000005px;word-spacing:7.5px;text-anchor:middle;fill:#0907ab;fill-opacity:1"
         d="m 73.355102,501.41064 3.153726,7.6361 -10.524869,16.01134 14.64037,-6.0465 3.183548,7.70831 -26.464589,10.92993 -3.183549,-7.70831 10.438923,-15.91245 -14.532056,6.00177 -3.176093,-7.69025 z" />
      <path
         id="path1124"
         style="font-style:normal;font-variant:normal;font-weight:900;font-stretch:normal;font-family:Arial;-inkscape-font-specification:'Arial Heavy';text-align:center;letter-spacing:3.20000005px;word-spacing:7.5px;text-anchor:middle;fill:#0907ab;fill-opacity:1"
         d="m 89.036882,573.79607 5.039913,-3.17577 7.288645,11.56701 -10.327689,6.50772 q -4.356712,-1.89489 -6.796842,-3.93554 -2.413193,-2.03454 -4.620612,-5.53769 -2.717624,-4.31284 -2.964999,-7.96605 -0.236962,-3.63669 1.723791,-6.97297 1.971166,-3.31976 5.738708,-5.69378 3.965833,-2.49897 7.921458,-2.70605 3.972149,-0.21749 7.481144,1.98072 2.724671,1.72284 5.348581,5.88697 2.5302,4.0154 3.05261,6.45646 0.53283,2.45759 -0.18136,4.73136 -0.68724,2.27988 -2.6172,4.4194 l -5.839096,-6.40895 q 1.090386,-1.31039 1.140646,-2.84261 0.0607,-1.5157 -0.980552,-3.16813 -1.55144,-2.46212 -4.196667,-2.8499 -2.618291,-0.38167 -6.319735,1.9507 -3.932784,2.47814 -4.691564,5.01086 -0.748368,2.54925 0.917609,5.19314 0.791339,1.25585 1.873326,2.16695 1.081987,0.91111 2.884474,1.82992 l 2.280354,-1.43691 z" />
      <path
         id="path1126"
         style="font-style:normal;font-variant:normal;font-weight:900;font-stretch:normal;font-family:Arial;-inkscape-font-specification:'Arial Heavy';text-align:center;letter-spacing:3.20000005px;word-spacing:7.5px;text-anchor:middle;fill:#0907ab;fill-opacity:1"
         d="m 115.17568,580.25388 14.50702,18.75513 -4.83555,3.74028 -9.08183,-11.74127 -3.59962,2.7843 8.42459,10.89157 -4.61926,3.57298 -8.42459,-10.89157 -4.46477,3.45348 9.34472,12.08115 -5.12908,3.96732 -14.76992,-19.09501 z m 12.93704,4.33938 4.18242,5.40716 -8.47904,-1.41706 -2.3302,-3.01256 z" />
      <path
         id="path1128"
         style="font-style:normal;font-variant:normal;font-weight:900;font-stretch:normal;font-family:Arial;-inkscape-font-specification:'Arial Heavy';text-align:center;letter-spacing:3.20000005px;word-spacing:7.5px;text-anchor:middle;fill:#0907ab;fill-opacity:1"
         d="m 133.35786,603.4284 5.65679,6.02134 -4.16255,18.70319 11.54448,-10.84554 5.71029,6.07828 -20.86831,19.60489 -5.7103,-6.07829 4.11727,-18.58024 -11.45907,10.7653 -5.69692,-6.06405 z" />
      <path
         id="path1130"
         style="font-style:normal;font-variant:normal;font-weight:900;font-stretch:normal;font-family:Arial;-inkscape-font-specification:'Arial Heavy';text-align:center;letter-spacing:3.20000005px;word-spacing:7.5px;text-anchor:middle;fill:#0907ab;fill-opacity:1"
         d="m 156.75958,627.74295 17.81269,15.64981 -4.03491,4.59257 -11.15128,-9.79725 -3.00363,3.41875 10.34428,9.08823 -3.85445,4.38715 -10.34427,-9.08824 -3.72553,4.24042 11.47407,10.08085 -4.27985,4.87135 -18.13549,-15.93342 z m 13.52661,1.79672 5.13545,4.51189 -8.59373,0.22331 -2.86118,-2.51376 z" />
      <path
         id="path1132"
         style="font-style:normal;font-variant:normal;font-weight:900;font-stretch:normal;font-family:Arial;-inkscape-font-specification:'Arial Heavy';text-align:center;letter-spacing:3.20000005px;word-spacing:7.5px;text-anchor:middle;fill:#0907ab;fill-opacity:1"
         d="m 162.33891,670.25307 16.8254,-23.16773 11.93154,8.66519 q 3.31871,2.41019 4.6597,4.25307 1.341,1.84288 1.29088,4.17205 -0.0386,2.31337 -1.64544,4.52584 -1.40021,1.92801 -3.24344,2.7377 -1.83176,0.79389 -3.9011,0.61866 -1.3183,-0.11256 -3.17841,-0.90826 0.97019,1.35633 1.24503,2.20767 0.1885,0.57139 0.25411,2.04321 0.0814,1.4833 -0.033,2.17264 l -1.41682,9.22991 -8.09132,-5.87626 1.31732,-9.85736 q 0.27155,-1.90284 0.001,-2.72691 -0.38414,-1.09969 -1.36395,-1.81127 l -0.63214,-0.45908 -6.82886,9.403 z m 17.19854,-8.55846 3.01845,2.19212 q 0.4899,0.35579 2.12594,1.06118 0.81445,0.37424 1.68159,0.11088 0.88295,-0.25189 1.43385,-1.01045 0.81488,-1.12204 0.53985,-2.23904 -0.27502,-1.117 -2.23464,-2.54015 l -3.14487,-2.28394 z" />
      <path
         id="path1134"
         style="font-style:normal;font-variant:normal;font-weight:900;font-stretch:normal;font-family:Arial;-inkscape-font-specification:'Arial Heavy';text-align:center;letter-spacing:3.20000005px;word-spacing:7.5px;text-anchor:middle;fill:#0907ab;fill-opacity:1"
         d="m 207.83188,694.85154 -8.68514,-5.11244 -3.59274,3.36981 -7.79305,-4.58732 23.79911,-19.21601 8.31484,4.89447 -5.25063,30.13442 -7.9782,-4.69631 z m 1.54177,-6.27688 2.4947,-10.47535 -7.93132,7.27512 z" />
      <path
         id="path1136"
         style="font-style:normal;font-variant:normal;font-weight:900;font-stretch:normal;font-family:Arial;-inkscape-font-specification:'Arial Heavy';text-align:center;letter-spacing:3.20000005px;word-spacing:7.5px;text-anchor:middle;fill:#0907ab;fill-opacity:1"
         d="m 232.30186,681.06231 7.99852,3.78216 -9.22581,19.51073 12.48334,5.90285 -3.01404,6.37409 -20.48185,-9.68501 z" />
      <path
         id="path1138"
         style="font-style:normal;font-variant:normal;font-weight:900;font-stretch:normal;font-family:Arial;-inkscape-font-specification:'Arial Heavy';text-align:center;letter-spacing:3.20000005px;word-spacing:7.5px;text-anchor:middle;fill:#0907ab;fill-opacity:1"
         d="m 257.17355,692.56109 22.23951,8.22269 -2.12001,5.73391 -13.9226,-5.14765 -1.57816,4.26838 12.91504,4.77512 -2.02519,5.47744 -12.91504,-4.77512 -1.95746,5.29425 14.32562,5.29666 -2.24871,6.08197 -22.64254,-8.37169 z" />
      <path
         id="path1140"
         style="font-style:normal;font-variant:normal;font-weight:900;font-stretch:normal;font-family:Arial;-inkscape-font-specification:'Arial Heavy';text-align:center;letter-spacing:3.20000005px;word-spacing:7.5px;text-anchor:middle;fill:#0907ab;fill-opacity:1"
         d="m 306.34999,708.35847 12.90214,2.51265 q 3.81505,0.74297 5.95231,2.2337 2.15644,1.49446 3.31304,3.72942 1.1566,2.23496 1.34647,4.9383 0.18987,2.70333 -0.37016,5.57899 -0.87737,4.50521 -2.39797,6.79584 -1.49769,2.27519 -3.64749,3.60756 -2.14607,1.31321 -4.34399,1.46221 -3.00583,0.21055 -5.32553,-0.2412 l -12.90215,-2.51265 z m 7.44498,8.05608 -2.99055,15.35605 2.128,0.41442 q 2.72229,0.53015 3.98829,0.15986 1.26974,-0.38946 2.21277,-1.75787 0.94677,-1.38758 1.60387,-4.76169 0.8699,-4.46686 -0.26602,-6.39932 -1.13592,-1.93246 -4.51003,-2.58956 z" />
      <path
         id="path1142"
         style="font-style:normal;font-variant:normal;font-weight:900;font-stretch:normal;font-family:Arial;-inkscape-font-specification:'Arial Heavy';text-align:center;letter-spacing:3.20000005px;word-spacing:7.5px;text-anchor:middle;fill:#0907ab;fill-opacity:1"
         d="m 337.32955,714.03428 23.59459,2.34605 -0.60487,6.08329 -14.77091,-1.4687 -0.45027,4.52845 13.70196,1.36241 -0.57782,5.81119 -13.70196,-1.36242 -0.55849,5.61684 15.19849,1.51121 -0.64159,6.45256 -24.02217,-2.38857 z" />
      <path
         id="path1144"
         style="font-style:normal;font-variant:normal;font-weight:900;font-stretch:normal;font-family:Arial;-inkscape-font-specification:'Arial Heavy';text-align:center;letter-spacing:3.20000005px;word-spacing:7.5px;text-anchor:middle;fill:#0907ab;fill-opacity:1"
         d="m 389.04428,716.88214 8.83503,-0.47249 1.15256,21.55123 13.78889,-0.73743 0.37654,7.04072 -22.62392,1.20993 z" />
      <path
         id="path1146"
         style="font-style:normal;font-variant:normal;font-weight:900;font-stretch:normal;font-family:Arial;-inkscape-font-specification:'Arial Heavy';text-align:center;letter-spacing:3.20000005px;word-spacing:7.5px;text-anchor:middle;fill:#0907ab;fill-opacity:1"
         d="m 437.20389,736.38079 -9.9751,1.43738 -0.69842,4.87602 -8.95052,1.28974 6.56798,-29.87498 9.5498,-1.37609 14.73542,26.80522 -9.16317,1.32038 z m -2.71954,-5.86348 -4.59974,-9.73647 -1.64436,10.63622 z" />
      <path
         id="path1148"
         style="font-style:normal;font-variant:normal;font-weight:900;font-stretch:normal;font-family:Arial;-inkscape-font-specification:'Arial Heavy';text-align:center;letter-spacing:3.20000005px;word-spacing:7.5px;text-anchor:middle;fill:#0907ab;fill-opacity:1"
         d="m 473.39355,723.962 7.87206,-3.02836 q 0.87606,1.8743 1.99948,2.6471 1.82568,1.24807 4.2478,0.48638 1.80727,-0.56834 2.51246,-1.71144 0.71796,-1.1676 0.36641,-2.2855 -0.33398,-1.062 -1.52922,-1.60747 -1.19525,-0.54547 -4.82059,-0.22437 -5.9448,0.49771 -8.9614,-0.82629 -3.03522,-1.31814 -4.043,-4.52279 -0.66208,-2.10538 -0.0369,-4.3494 0.63791,-2.2685 2.74469,-4.09806 2.11955,-1.85405 6.38621,-3.1958 5.2355,-1.64643 8.58957,-0.5514 3.36685,1.07054 5.22443,5.15451 l -7.80925,2.96766 q -0.8968,-1.74494 -2.18521,-2.26111 -1.26977,-0.52203 -3.05841,0.0404 -1.47191,0.46288 -2.01796,1.33072 -0.55192,0.84921 -0.27068,1.74354 0.20507,0.6521 0.98398,0.98044 0.76613,0.35282 3.14841,0.11552 5.9086,-0.54775 8.68016,-0.068 2.78433,0.45522 4.43331,1.92267 1.66761,1.46158 2.37071,3.69738 0.82614,2.62707 0.0701,5.30125 -0.75603,2.67419 -3.00119,4.64964 -2.25103,1.95682 -6.21958,3.20482 -6.96825,2.19133 -10.49494,0.35209 -3.52668,-1.83924 -5.18142,-5.86415 z" />
      <path
         id="path1150"
         style="font-style:normal;font-variant:normal;font-weight:900;font-stretch:normal;font-family:Arial;-inkscape-font-specification:'Arial Heavy';text-align:center;letter-spacing:3.20000005px;word-spacing:7.5px;text-anchor:middle;fill:#0907ab;fill-opacity:1"
         d="m 497.16681,696.09409 21.88121,-9.13352 2.35485,5.64153 -13.69829,5.71786 1.75298,4.1996 12.70696,-5.30406 2.24953,5.38919 -12.70697,5.30407 2.1743,5.20895 14.09481,-5.88337 2.4978,5.98398 -22.27774,9.29905 z m 7.55286,-11.36448 6.30842,-2.63323 -3.57225,7.81929 -3.51469,1.46708 z" />
      <path
         id="path1152"
         style="font-style:normal;font-variant:normal;font-weight:900;font-stretch:normal;font-family:Arial;-inkscape-font-specification:'Arial Heavy';text-align:center;letter-spacing:3.20000005px;word-spacing:7.5px;text-anchor:middle;fill:#0907ab;fill-opacity:1"
         d="m 549.03758,690.51147 7.94612,-1.57333 q 0.8425,3.24643 0.38725,5.96659 -0.45525,2.72016 -2.13929,4.87733 -1.66679,2.14801 -5.0635,3.95544 -4.12088,2.19278 -7.37476,2.39763 -3.2458,0.17844 -6.74803,-1.82971 -3.50223,-2.00816 -6.00695,-6.71527 -3.33962,-6.27616 -1.80096,-11.40912 1.54672,-5.15938 7.65046,-8.40725 4.77608,-2.54142 8.52792,-2.05991 3.76909,0.47233 7.22529,3.76606 l -6.08032,5.20447 q -0.9768,-0.96256 -1.65779,-1.28604 -1.13229,-0.54796 -2.3375,-0.52612 -1.20522,0.0218 -2.37769,0.64571 -2.65529,1.41292 -2.93148,4.30329 -0.22493,2.15511 1.5825,5.55182 2.23865,4.2071 4.34948,5.0972 2.10165,0.87286 4.4121,-0.35656 2.24149,-1.19272 2.70971,-3.05694 0.48547,-1.87339 -0.27256,-4.54529 z" />
      <path
         id="path1154"
         style="font-style:normal;font-variant:normal;font-weight:900;font-stretch:normal;font-family:Arial;-inkscape-font-specification:'Arial Heavy';text-align:center;letter-spacing:3.20000005px;word-spacing:7.5px;text-anchor:middle;fill:#0907ab;fill-opacity:1"
         d="m 567.40687,659.1706 7.34326,-4.90025 9.47526,14.19912 q 1.40936,2.112 2.00085,4.44104 0.5969,2.30195 0.12668,4.65856 -0.46482,2.32951 -1.62876,3.92805 -1.61327,2.2271 -4.6188,4.23274 -1.73834,1.16001 -3.96421,2.29316 -2.20964,1.12231 -4.06757,1.32898 -1.86878,0.19043 -3.91124,-0.37202 -2.02621,-0.5733 -3.3918,-1.70484 -2.20012,-1.81912 -3.37097,-3.5737 l -9.47526,-14.19912 7.34325,-4.90025 9.70293,14.54029 q 1.30095,1.94953 3.1104,2.33875 1.81485,0.36212 3.7319,-0.91715 1.9008,-1.26842 2.25752,-3.05619 0.36212,-1.81486 -0.96051,-3.79688 z" />
      <path
         id="path1156"
         style="font-style:normal;font-variant:normal;font-weight:900;font-stretch:normal;font-family:Arial;-inkscape-font-specification:'Arial Heavy';text-align:center;letter-spacing:3.20000005px;word-spacing:7.5px;text-anchor:middle;fill:#0907ab;fill-opacity:1"
         d="m 598.02408,672.53876 -18.17077,-22.12829 11.39622,-9.35806 q 3.16981,-2.60291 5.29149,-3.43534 2.12169,-0.83242 4.36279,-0.19602 2.22871,0.6213 3.96398,2.73451 1.51216,1.8415 1.8304,3.82943 0.30583,1.97283 -0.38604,3.93094 -0.44165,1.2472 -1.6811,2.84625 1.5573,-0.59643 2.45045,-0.64749 0.60047,-0.0382 2.04119,0.26983 1.45582,0.29562 2.09397,0.58032 l 8.57344,3.70063 -7.7283,6.34614 -9.20569,-3.76272 q -1.77269,-0.74305 -2.63835,-0.68929 -1.16104,0.0941 -2.09689,0.86261 l -0.60378,0.4958 7.37491,8.98112 z m -3.94034,-18.80188 2.88301,-2.36741 q 0.46793,-0.38424 1.56343,-1.78926 0.56769,-0.69362 0.53172,-1.59916 -0.0209,-0.91794 -0.61582,-1.64247 -0.88003,-1.0717 -2.03028,-1.08751 -1.15024,-0.0158 -3.02194,1.52113 l -3.00377,2.46657 z" />
      <path
         id="path1158"
         style="font-style:normal;font-variant:normal;font-weight:900;font-stretch:normal;font-family:Arial;-inkscape-font-specification:'Arial Heavy';text-align:center;letter-spacing:3.20000005px;word-spacing:7.5px;text-anchor:middle;fill:#0907ab;fill-opacity:1"
         d="m 604.53045,629.40839 6.41807,-6.11845 19.75692,20.72443 -6.41807,6.11845 z" />
      <path
         id="path1160"
         style="font-style:normal;font-variant:normal;font-weight:900;font-stretch:normal;font-family:Arial;-inkscape-font-specification:'Arial Heavy';text-align:center;letter-spacing:3.20000005px;word-spacing:7.5px;text-anchor:middle;fill:#0907ab;fill-opacity:1"
         d="m 615.01952,619.58847 18.10259,-19.89 5.22889,4.759 -6.07364,6.67333 15.94667,14.51362 -5.95532,6.54334 -15.94667,-14.51363 -6.07363,6.67334 z" />
      <path
         id="path1162"
         style="font-style:normal;font-variant:normal;font-weight:900;font-stretch:normal;font-family:Arial;-inkscape-font-specification:'Arial Heavy';text-align:center;letter-spacing:3.20000005px;word-spacing:7.5px;text-anchor:middle;fill:#0907ab;fill-opacity:1"
         d="m 636.03448,596.06908 14.32603,-18.89374 4.87128,3.69362 -8.96852,11.82804 3.62623,2.74956 8.31948,-10.97207 4.6534,3.52841 -8.31948,10.97206 4.49777,3.4104 9.22813,-12.17043 5.16699,3.91782 -14.58564,19.23614 z m 0.81767,-13.62089 4.13024,-5.44712 0.84178,8.55532 -2.30114,3.03483 z" />
      <path
         id="path1164"
         style="font-style:normal;font-variant:normal;font-weight:900;font-stretch:normal;font-family:Arial;-inkscape-font-specification:'Arial Heavy';text-align:center;letter-spacing:3.20000005px;word-spacing:7.5px;text-anchor:middle;fill:#0907ab;fill-opacity:1"
         d="m 665.71995,552.73753 4.32945,-7.73841 24.98789,13.9801 -4.32944,7.73841 z" />
      <path
         id="path1166"
         style="font-style:normal;font-variant:normal;font-weight:900;font-stretch:normal;font-family:Arial;-inkscape-font-specification:'Arial Heavy';text-align:center;letter-spacing:3.20000005px;word-spacing:7.5px;text-anchor:middle;fill:#0907ab;fill-opacity:1"
         d="m 673.71613,538.60213 3.46074,-7.50195 18.89932,-3.15464 -14.38317,-6.63514 3.49347,-7.57289 25.99967,11.99397 -3.49347,7.57289 -18.76837,3.15053 14.27676,6.58604 -3.48528,7.55516 z" />
      <path
         id="path1168"
         style="font-style:normal;font-variant:normal;font-weight:900;font-stretch:normal;font-family:Arial;-inkscape-font-specification:'Arial Heavy';text-align:center;letter-spacing:3.20000005px;word-spacing:7.5px;text-anchor:middle;fill:#0907ab;fill-opacity:1"
         d="m 686.80882,509.70188 8.84871,-25.39716 6.67667,2.32624 -2.96885,8.52105 20.362,7.0944 -2.91102,8.35506 -20.36199,-7.0944 -2.96885,8.52105 z" />
      <path
         id="path1170"
         style="font-style:normal;font-variant:normal;font-weight:900;font-stretch:normal;font-family:Arial;-inkscape-font-specification:'Arial Heavy';text-align:center;letter-spacing:3.20000005px;word-spacing:7.5px;text-anchor:middle;fill:#0907ab;fill-opacity:1"
         d="m 696.89906,479.85351 5.73933,-23.00584 5.93149,1.47975 -3.59299,14.40234 4.41546,1.10153 3.33297,-13.36006 5.66618,1.41356 -3.33297,13.36006 5.47668,1.36628 3.697,-14.81925 6.29154,1.56957 -5.84333,23.42275 z m -4.60602,-12.84452 1.65466,-6.63266 4.13917,7.53455 -0.92189,3.69534 z" />
      <path
         id="path1172"
         style="font-style:normal;font-variant:normal;font-weight:900;font-stretch:normal;font-family:Arial;-inkscape-font-specification:'Arial Heavy';text-align:center;letter-spacing:3.20000005px;word-spacing:7.5px;text-anchor:middle;fill:#0907ab;fill-opacity:1"
         d="m 732.11159,455.40055 -28.3075,-4.30386 2.21652,-14.57856 q 0.61652,-4.05496 1.63752,-6.09261 1.02101,-2.03765 3.11296,-3.06298 2.07264,-1.02826 4.77595,-0.61725 2.35574,0.35817 3.92161,1.62354 1.54656,1.26243 2.34142,3.18105 0.50555,1.22269 0.65315,3.24046 0.75916,-1.48479 1.38913,-2.11997 0.42096,-0.42989 1.6982,-1.16422 1.28017,-0.75363 1.94504,-0.96864 l 8.84941,-2.98104 -1.50312,9.88639 -9.36105,3.35763 q -1.81496,0.63282 -2.42269,1.25162 -0.80037,0.84634 -0.98239,2.04352 l -0.11743,0.77238 11.48906,1.74679 z m -15.50196,-11.34576 0.56073,-3.68808 q 0.091,-0.59859 -0.0339,-2.37584 -0.0417,-0.89534 -0.67392,-1.54463 -0.62931,-0.66859 -1.55615,-0.80951 -1.37097,-0.20844 -2.23683,0.54892 -0.86587,0.75736 -1.22991,3.15172 l -0.58422,3.84256 z" />
      <path
         id="path1174"
         style="font-style:normal;font-variant:normal;font-weight:900;font-stretch:normal;font-family:Arial;-inkscape-font-specification:'Arial Heavy';text-align:center;letter-spacing:3.20000005px;word-spacing:7.5px;text-anchor:middle;fill:#0907ab;fill-opacity:1"
         d="m 708.1054,418.98648 0.6788,-8.84116 28.54879,2.1919 -0.6788,8.84117 z" />
      <path
         id="path1176"
         style="font-style:normal;font-variant:normal;font-weight:900;font-stretch:normal;font-family:Arial;-inkscape-font-specification:'Arial Heavy';text-align:center;letter-spacing:3.20000005px;word-spacing:7.5px;text-anchor:middle;fill:#0907ab;fill-opacity:1"
         d="m 709.34444,402.66383 0.1479,-23.71048 6.11317,0.0381 -0.0926,14.84346 4.55069,0.0284 0.0859,-13.76926 5.83973,0.0364 -0.0859,13.76926 5.64442,0.0352 0.0953,-15.27314 6.48425,0.0404 -0.15058,24.14015 z" />
      <path
         id="path1178"
         style="font-style:normal;font-variant:normal;font-weight:900;font-stretch:normal;font-family:Arial;-inkscape-font-specification:'Arial Heavy';text-align:center;letter-spacing:3.20000005px;word-spacing:7.5px;text-anchor:middle;fill:#0907ab;fill-opacity:1"
         d="m 707.68279,354.68692 -0.78366,-8.79328 17.00292,-1.51529 q 2.52904,-0.22539 4.85681,0.37111 2.30658,0.57879 4.14992,2.12046 1.82216,1.52396 2.66776,3.31142 1.18211,2.48299 1.50286,6.08201 0.18551,2.08159 0.11388,4.57828 -0.0734,2.47723 -0.78197,4.20711 -0.72807,1.73163 -2.20021,3.25504 -1.47388,1.50396 -3.12132,2.1606 -2.65076,1.0598 -4.75181,1.24704 l -17.00292,1.5153 -0.78366,-8.79327 17.41147,-1.55171 q 2.33449,-0.20805 3.54295,-1.60992 1.18726,-1.41959 0.98268,-3.71518 -0.20285,-2.27613 -1.60125,-3.44568 -1.41959,-1.18726 -3.79299,-0.97575 z" />
      <path
         id="path1180"
         style="font-style:normal;font-variant:normal;font-weight:900;font-stretch:normal;font-family:Arial;-inkscape-font-specification:'Arial Heavy';text-align:center;letter-spacing:3.20000005px;word-spacing:7.5px;text-anchor:middle;fill:#0907ab;fill-opacity:1"
         d="m 734.08796,334.21461 -28.12678,5.3593 -2.76008,-14.48548 q -0.7677,-4.02908 -0.48279,-6.29034 0.28491,-2.26126 1.91656,-3.92417 1.61246,-1.65926 4.29851,-2.17106 2.3407,-0.446 4.23836,0.22632 1.87847,0.67597 3.26637,2.22083 0.88355,0.98485 1.69406,2.83856 0.22191,-1.65278 0.60467,-2.46137 0.25395,-0.54545 1.21411,-1.66289 0.95651,-1.13662 1.51197,-1.56058 l 7.35348,-5.75543 1.87173,9.82327 -7.71068,6.28079 q -1.50102,1.20061 -1.86825,1.98636 -0.4732,1.06441 -0.24654,2.25395 l 0.14623,0.76744 11.41571,-2.17516 z m -18.39361,-5.54186 -0.69825,-3.66454 q -0.11333,-0.59477 -0.82241,-2.22922 -0.33718,-0.83047 -1.14943,-1.23242 -0.8159,-0.42113 -1.73683,-0.24566 -1.36221,0.25956 -1.92677,1.26185 -0.56456,1.00229 -0.11125,3.38137 l 0.72749,3.81802 z" />
      <path
         id="path1182"
         style="font-style:normal;font-variant:normal;font-weight:900;font-stretch:normal;font-family:Arial;-inkscape-font-specification:'Arial Heavy';text-align:center;letter-spacing:3.20000005px;word-spacing:7.5px;text-anchor:middle;fill:#0907ab;fill-opacity:1"
         d="m 699.7278,308.71694 -6.59927,-22.77407 5.87173,-1.70146 4.13134,14.25724 4.37097,-1.26658 -3.83236,-13.22547 5.6091,-1.62535 3.83236,13.22546 5.42151,-1.57099 -4.25094,-14.66995 6.22817,-1.80475 6.71886,23.18678 z" />
    </g>
    <path
       sodipodi:nodetypes="ccccccccccccccccscccccccccccccccccccccccccccccc"
       id="path1251-4-8-3"
       d="m 364.93237,207.65384 c -1.1543,0.002 -2.2334,0.57241 -2.8847,1.52539 -22.3856,31.80047 -46.4241,48.77367 -71.6074,57.67387 -25.1834,8.9002 -51.6616,9.6686 -78.7188,8.3711 -4.7167,-0.28515 -5.0582,6.8238 -0.3359,6.9921 27.4039,1.3143 54.8723,0.607 81.3867,-8.7636 26.5144,-9.3707 51.9237,-27.4654 74.998,-60.24417 1.6785,-2.31564 0.022,-5.55779 -2.8379,-5.55469 z m 18.6758,0.38868 c -2.9745,-0.0696 -4.6741,3.3684 -2.8125,5.68945 33.2573,42.69133 73.034,61.61213 122,68.54883 4.7083,0.77401 5.7203,-6.36456 0.9824,-6.9297 -47.7593,-6.7657 -85.2347,-24.5566 -117.4589,-65.92187 -0.6447,-0.85168 -1.6431,-1.36234 -2.711,-1.38671 z m -175.2168,80.20118 c -3.8701,0.10243 -4.7349,5.483 -1.0918,6.793 41.2566,15.5045 63.9798,45.1273 69.7657,77.2714 5.7859,32.1442 -5.4603,66.9409 -33.3165,92.7207 -3.5683,3.16299 1.3247,8.44999 4.754,5.1368 29.4761,-27.2791 41.6741,-64.5255 35.4511,-99.0977 -6.2229,-34.5722 -30.9616,-66.3379 -74.1914,-82.584 -0.4363,-0.17105 -0.9026,-0.25273 -1.3711,-0.2402 z m 291.8633,17.7656 c -0.7884,0.0284 -1.5441,0.32228 -2.1445,0.834 -44.3974,36.7991 -53.4197,106.6318 -2.8125,153.5215 3.426,3.25123 8.2603,-1.9662 4.7578,-5.1348 -47.7844,-44.2743 -38.9137,-108.6522 2.5215,-142.9961 2.6231,-2.11175 1.043,-6.34701 -2.3223,-6.2246 z m -10.9746,156.5938 c -1.1536,0.0434 -2.2117,0.65279 -2.8281,1.6289 -7.7596,11.8962 -15.9125,15.3648 -25.2051,15.6875 -9.2926,0.3226 -19.8258,-3.0645 -30.6152,-6.1914 -10.7895,-3.127 -21.9417,-6.0348 -32.8262,-3.5098 -10.8845,2.5249 -20.8157,10.7793 -28.4629,27.8496 -2.04,4.30695 4.5284,7.25169 6.3867,2.8633 7.0944,-15.8364 15.0196,-21.8886 23.6582,-23.8926 8.6387,-2.004 18.6778,0.3371 29.2949,3.4141 10.6172,3.077 21.7072,6.8483 32.8067,6.4629 11.0995,-0.3855 22.1062,-5.4907 30.8262,-18.8594 1.5994,-2.37495 -0.1739,-5.56094 -3.0352,-5.4531 z m -236.5039,4.998 c -4.4986,0.18302 -4.4671,6.85552 0.033,6.9961 43.7834,1.9835 79.701,16.1043 113.0098,39.1484 3.8387,2.65599 7.8211,-3.10181 3.9824,-5.7578 -34.1511,-23.6268 -71.5554,-38.3388 -116.6738,-40.3828 -0.1171,-0.006 -0.2345,-0.006 -0.3516,0 z"
       style="color:#000000;font-style:normal;font-variant:normal;font-weight:normal;font-stretch:normal;font-size:medium;line-height:normal;font-family:sans-serif;font-variant-ligatures:normal;font-variant-position:normal;font-variant-caps:normal;font-variant-numeric:normal;font-variant-alternates:normal;font-feature-settings:normal;text-indent:0;text-align:start;text-decoration:none;text-decoration-line:none;text-decoration-style:solid;text-decoration-color:#000000;letter-spacing:normal;word-spacing:normal;text-transform:none;writing-mode:lr-tb;direction:ltr;text-orientation:mixed;dominant-baseline:auto;baseline-shift:baseline;text-anchor:start;white-space:normal;shape-padding:0;clip-rule:nonzero;display:inline;overflow:visible;visibility:visible;opacity:1;isolation:auto;mix-blend-mode:normal;color-interpolation:sRGB;color-interpolation-filters:linearRGB;solid-color:#000000;solid-opacity:1;vector-effect:none;fill:url(#linearGradient1574);fill-opacity:1;fill-rule:nonzero;stroke:none;stroke-width:7;stroke-linecap:round;stroke-linejoin:miter;stroke-miterlimit:4;stroke-dasharray:none;stroke-dashoffset:0;stroke-opacity:1;color-rendering:auto;image-rendering:auto;shape-rendering:auto;text-rendering:auto;enable-background:accumulate"
       inkscape:connector-curvature="0" />
  </g>
  <text
     xml:space="preserve"
     style="font-style:normal;font-variant:normal;font-weight:normal;font-stretch:normal;font-size:40px;line-height:1.25;font-family:Timok;-inkscape-font-specification:Timok;letter-spacing:0px;word-spacing:0px;fill:#000000;fill-opacity:1;stroke:none"
     x="-121.95794"
     y="776.05383"
     id="text948-7"><tspan
       sodipodi:role="line"
       id="tspan946-2"
       x="-121.95794"
       y="812.54706" /></text>
  <g
     id="g1420">
    <path
       transform="rotate(-8.6190579)"
       sodipodi:open="true"
       d="m 249.53649,294.35898 a 119.04995,22.905073 0 0 1 -40.75657,-26.14839 119.04995,22.905073 0 0 1 118.26578,-15.08224 119.04995,22.905073 0 0 1 109.29766,17.40746 119.04995,22.905073 0 0 1 -54.92218,25.17075"
       sodipodi:end="1.0358694"
       sodipodi:start="2.2118391"
       sodipodi:ry="22.905073"
       sodipodi:rx="119.04995"
       sodipodi:cy="276.00119"
       sodipodi:cx="320.73212"
       sodipodi:type="arc"
       style="opacity:0.70999995;fill:none;fill-opacity:1;stroke:#78789d;stroke-width:4.04431868;stroke-linecap:round;stroke-linejoin:round;stroke-miterlimit:4;stroke-dasharray:none;stroke-dashoffset:0;stroke-opacity:1"
       id="circle4749" />
    <path
       transform="rotate(-8.6190579)"
       id="path4762"
       style="opacity:0.70999995;fill:none;fill-opacity:1;stroke:#78789d;stroke-width:5.05539799;stroke-linecap:round;stroke-linejoin:round;stroke-miterlimit:4;stroke-dasharray:none;stroke-dashoffset:0;stroke-opacity:1"
       sodipodi:type="arc"
       sodipodi:cx="320.72665"
       sodipodi:cy="294.77835"
       sodipodi:rx="144.02106"
       sodipodi:ry="22.905073"
       sodipodi:start="2.6776103"
       sodipodi:end="0.99249835"
       d="m 191.93187,305.02867 a 144.02106,22.905073 0 0 1 59.48371,-30.32844 144.02106,22.905073 0 0 1 192.82491,8.29801 144.02106,22.905073 0 0 1 -44.792,30.96069"
       sodipodi:open="true" />
    <path
       transform="rotate(-8.6190579)"
       sodipodi:open="true"
       d="m 168.38105,323.52527 a 164.13477,22.905073 0 0 1 74.69463,-28.70527 164.13477,22.905073 0 0 1 212.7265,7.16816 164.13477,22.905073 0 0 1 -27.40086,30.29891"
       sodipodi:end="0.85524152"
       sodipodi:start="2.7602114"
       sodipodi:ry="22.905073"
       sodipodi:rx="164.13477"
       sodipodi:cy="314.99994"
       sodipodi:cx="320.72296"
       sodipodi:type="arc"
       style="opacity:0.70999995;fill:none;fill-opacity:1;stroke:#78789d;stroke-width:6.0664773;stroke-linecap:round;stroke-linejoin:round;stroke-miterlimit:4;stroke-dasharray:none;stroke-dashoffset:0;stroke-opacity:1"
       id="path4764" />
    <path
       transform="rotate(-8.6190579)"
       id="path4766"
       style="opacity:0.70999995;fill:none;fill-opacity:1;stroke:#78789d;stroke-width:6.0664773;stroke-linecap:round;stroke-linejoin:round;stroke-miterlimit:4;stroke-dasharray:none;stroke-dashoffset:0;stroke-opacity:1"
       sodipodi:type="arc"
       sodipodi:cx="320.72208"
       sodipodi:cy="338.43066"
       sodipodi:rx="177.72758"
       sodipodi:ry="24.669838"
       sodipodi:start="2.3819312"
       sodipodi:end="0.57092239"
       d="m 191.85728,355.42019 a 177.72758,24.669838 0 0 1 -3.44706,-33.46064 177.72758,24.669838 0 0 1 240.01065,-3.15331 177.72758,24.669838 0 0 1 41.84171,32.95621"
       sodipodi:open="true" />
    <path
       transform="rotate(-8.6190579)"
       sodipodi:open="true"
       d="m 197.24343,375.66914 a 189.38733,17.138159 0 0 1 -20.52813,-24.12246 189.38733,17.138159 0 0 1 266.49359,-1.94341 189.38733,17.138159 0 0 1 22.42334,24.10865"
       sodipodi:end="0.69965134"
       sodipodi:start="2.2811152"
       sodipodi:ry="17.138159"
       sodipodi:rx="189.38733"
       sodipodi:cy="362.67578"
       sodipodi:cx="320.73828"
       sodipodi:type="arc"
       style="opacity:0.70999995;fill:none;fill-opacity:1;stroke:#78789d;stroke-width:6.0664773;stroke-linecap:round;stroke-linejoin:round;stroke-miterlimit:4;stroke-dasharray:none;stroke-dashoffset:0;stroke-opacity:1"
       id="path4768" />
    <path
       transform="rotate(-8.6190579)"
       sodipodi:open="true"
       id="path4770"
       style="opacity:0.70999995;fill:none;fill-opacity:1;stroke:#78789d;stroke-width:6.0664773;stroke-linecap:round;stroke-linejoin:round;stroke-miterlimit:4;stroke-dasharray:none;stroke-dashoffset:0;stroke-opacity:1"
       sodipodi:type="arc"
       sodipodi:cx="318.04123"
       sodipodi:cy="388.85858"
       sodipodi:rx="194.65111"
       sodipodi:ry="14.43296"
       sodipodi:start="2.1749842"
       sodipodi:end="0.90523865"
       d="m 207.46112,400.73638 a 194.65111,14.43296 0 0 1 -76.12295,-15.95999 194.65111,14.43296 0 0 1 180.73115,-10.34397 194.65111,14.43296 0 0 1 188.94692,9.50261 194.65111,14.43296 0 0 1 -62.77836,16.27612" />
    <path
       transform="rotate(-8.6190579)"
       d="m 209.93175,426.89755 a 198.78587,12.037699 0 0 1 -82.86393,-13.4434 198.78587,12.037699 0 0 1 188.49965,-8.6952 198.78587,12.037699 0 0 1 192.01477,8.40843 198.78587,12.037699 0 0 1 -77.31335,13.56411"
       sodipodi:end="0.97088968"
       sodipodi:start="2.1458133"
       sodipodi:ry="12.037699"
       sodipodi:rx="198.78587"
       sodipodi:cy="416.79572"
       sodipodi:cx="318.04126"
       sodipodi:type="arc"
       style="opacity:0.70999995;fill:none;fill-opacity:1;stroke:#78789d;stroke-width:6.0664773;stroke-linecap:round;stroke-linejoin:round;stroke-miterlimit:4;stroke-dasharray:none;stroke-dashoffset:0;stroke-opacity:1"
       id="path4774"
       sodipodi:open="true" />
    <path
       transform="matrix(0.98870659,-0.14986422,-0.14986422,-0.98870659,0,0)"
       id="path4776"
       style="opacity:0.70999995;fill:none;fill-opacity:1;stroke:#78789d;stroke-width:6.0664773;stroke-linecap:round;stroke-linejoin:round;stroke-miterlimit:4;stroke-dasharray:none;stroke-dashoffset:0;stroke-opacity:1"
       sodipodi:type="arc"
       sodipodi:cx="318.04126"
       sodipodi:cy="-446.51602"
       sodipodi:rx="199.38058"
       sodipodi:ry="5.6508718"
       sodipodi:start="2.1673556"
       sodipodi:end="1.0538937"
       d="m 206.02937,-441.84121 a 199.38058,5.6508718 0 0 1 -77.3602,-6.4427 199.38058,5.6508718 0 0 1 197.31098,-3.8785 199.38058,5.6508718 0 0 1 185.79617,4.31119 199.38058,5.6508718 0 0 1 -95.20321,6.24781"
       sodipodi:open="true" />
    <path
       d="m 189.15271,-470.22024 a 199.38058,9.0132694 0 0 1 -54.42278,-10.42182 199.38058,9.0132694 0 0 1 204.31724,-5.41806 199.38058,9.0132694 0 0 1 174.66784,7.23317 199.38058,9.0132694 0 0 1 -101.52147,9.67494"
       sodipodi:end="1.0789843"
       sodipodi:start="2.2737118"
       sodipodi:ry="9.0132694"
       sodipodi:rx="199.38058"
       sodipodi:cy="-477.09702"
       sodipodi:cx="318.04126"
       sodipodi:type="arc"
       style="opacity:0.70999995;fill:none;fill-opacity:1;stroke:#78789d;stroke-width:6.0664773;stroke-linecap:round;stroke-linejoin:round;stroke-miterlimit:4;stroke-dasharray:none;stroke-dashoffset:0;stroke-opacity:1"
       id="path4778"
       transform="matrix(0.98870659,-0.14986422,-0.14986422,-0.98870659,0,0)"
       sodipodi:open="true" />
    <path
       transform="matrix(0.98870659,-0.14986422,-0.14986422,-0.98870659,0,0)"
       id="path4780"
       style="opacity:0.70999995;fill:none;fill-opacity:1;stroke:#78789d;stroke-width:6.0664773;stroke-linecap:round;stroke-linejoin:round;stroke-miterlimit:4;stroke-dasharray:none;stroke-dashoffset:0;stroke-opacity:1"
       sodipodi:type="arc"
       sodipodi:cx="320.73251"
       sodipodi:cy="-504.54062"
       sodipodi:rx="189.12836"
       sodipodi:ry="9.0132694"
       sodipodi:start="2.5576074"
       sodipodi:end="1.0473068"
       d="m 162.94802,-499.57112 a 189.12836,9.0132694 0 0 1 2.68307,-10.12726 189.12836,9.0132694 0 0 1 198.52421,-3.61473 189.12836,9.0132694 0 0 1 143.69577,7.46199 189.12836,9.0132694 0 0 1 -92.57227,9.11671"
       sodipodi:open="true" />
    <path
       d="m 197.43793,-520.17164 a 173.06836,15.632811 0 0 1 -34.77368,-17.33669 173.06836,15.632811 0 0 1 166.0106,-9.25028 173.06836,15.632811 0 0 1 155.9219,10.58618 173.06836,15.632811 0 0 1 -52.22473,16.97568"
       sodipodi:end="0.86969406"
       sodipodi:start="2.3637139"
       sodipodi:ry="15.632811"
       sodipodi:rx="173.06836"
       sodipodi:cy="-531.14227"
       sodipodi:cx="320.73248"
       sodipodi:type="arc"
       style="opacity:0.70999995;fill:none;fill-opacity:1;stroke:#78789d;stroke-width:5.05539799;stroke-linecap:round;stroke-linejoin:round;stroke-miterlimit:4;stroke-dasharray:none;stroke-dashoffset:0;stroke-opacity:1"
       id="path4784"
       sodipodi:open="true"
       transform="matrix(0.98870659,-0.14986422,-0.14986422,-0.98870659,0,0)" />
    <path
       transform="matrix(0.98870659,-0.14986422,-0.14986422,-0.98870659,0,0)"
       sodipodi:open="true"
       id="path4786"
       style="opacity:0.70999995;fill:none;fill-opacity:1;stroke:#78789d;stroke-width:4.04431868;stroke-linecap:round;stroke-linejoin:round;stroke-miterlimit:4;stroke-dasharray:none;stroke-dashoffset:0;stroke-opacity:1"
       sodipodi:type="arc"
       sodipodi:cx="320.73236"
       sodipodi:cy="-553.35547"
       sodipodi:rx="158.77422"
       sodipodi:ry="20.141001"
       sodipodi:start="2.1417322"
       sodipodi:end="0.85440989"
       d="m 234.92764,-536.40892 a 158.77422,20.141001 0 0 1 -68.06867,-21.91205 158.77422,20.141001 0 0 1 142.33667,-15.12226 158.77422,20.141001 0 0 1 158.1119,12.3456 158.77422,20.141001 0 0 1 -42.31392,22.93217" />
  </g>
</svg>
